<?xml version="1.0" encoding="UTF-8" standalone="no"?>
<!-- Created with Inkscape (http://www.inkscape.org/) -->

<svg
   width="500"
   height="500"
   viewBox="0 0 500 500"
   version="1.1"
   id="svg1"
   inkscape:version="1.4.2 (1:1.4.2+202505120737+ebf0e940d0)"
   xml:space="preserve"
   sodipodi:docname="home-icon-kgamex.svg"
   xmlns:inkscape="http://www.inkscape.org/namespaces/inkscape"
   xmlns:sodipodi="http://sodipodi.sourceforge.net/DTD/sodipodi-0.dtd"
   xmlns="http://www.w3.org/2000/svg"
   xmlns:svg="http://www.w3.org/2000/svg"><sodipodi:namedview
     id="namedview1"
     pagecolor="#505050"
     bordercolor="#eeeeee"
     borderopacity="1"
     inkscape:showpageshadow="0"
     inkscape:pageopacity="0"
     inkscape:pagecheckerboard="0"
     inkscape:deskcolor="#505050"
     inkscape:document-units="px"
     showgrid="false"
     inkscape:zoom="0.4015"
     inkscape:cx="589.0411"
     inkscape:cy="245.33001"
     inkscape:window-width="1862"
     inkscape:window-height="1011"
     inkscape:window-x="0"
     inkscape:window-y="0"
     inkscape:window-maximized="1"
     inkscape:current-layer="g2" /><defs
     id="defs1"><inkscape:perspective
       sodipodi:type="inkscape:persp3d"
       inkscape:vp_x="0 : 1000 : 1"
       inkscape:vp_y="0 : 1000 : 0"
       inkscape:vp_z="2000 : 1000 : 1"
       inkscape:persp3d-origin="1000 : 666.66667 : 1"
       id="perspective49" /></defs><g
     inkscape:label="Calque 1"
     inkscape:groupmode="layer"
     id="layer1"><g
       id="g2"
       transform="scale(0.25)"><g
         inkscape:label="Image"
         id="g1"
         style="display:inline"><path
           style="fill:none;stroke:#ffffff;stroke-width:70;stroke-linecap:round;stroke-linejoin:round;stroke-dasharray:none;stroke-opacity:1"
           d="M 445,1380 H 1555"
           id="path1"
           sodipodi:nodetypes="cc" /><path
           style="display:inline;fill:none;stroke:#ffffff;stroke-width:60;stroke-linecap:butt;stroke-linejoin:round;stroke-dasharray:none;stroke-opacity:1"
           id="path2"
           sodipodi:type="arc"
           sodipodi:cx="1000"
           sodipodi:cy="940"
           sodipodi:rx="535"
           sodipodi:ry="535"
           sodipodi:start="2.1660841"
           sodipodi:end="6.1208362"
           sodipodi:arc-type="arc"
           d="M 700.00033,1382.9731 A 535,535 0 0 1 496.11739,760.20201 535,535 0 0 1 1048.1897,407.17475 535,535 0 0 1 1527.9649,853.52428"
           sodipodi:open="true" /><path
           id="path14"
           style="fill:none;stroke:#ffffff;stroke-width:70;stroke-linecap:butt;stroke-linejoin:round;stroke-dasharray:none;stroke-opacity:1"
           d="m 472.00021,1017.8867 238.72988,138.3098 161.77061,-43.3463 276.6227,98.0637 v 0 l 187.0188,-50.1116 42.4293,-88.7754 164.0618,-2.7845 64.4167,-189.6443 -258.3228,-23.90171 -34.5029,37.02593 -120.7054,-18.50632 -131.7591,58.37544 -263.07246,70.49006 -213.25766,-31.02678 -115.96104,31.07168" /><path
           style="fill:none;stroke:#ffffff;stroke-width:70;stroke-linecap:butt;stroke-linejoin:round;stroke-dasharray:none;stroke-opacity:1"
           d="m 1460.6024,1070.6347 -54.8899,174.2343 -395.5894,105.9979 -105.95495,-60.4204 -54.02833,14.4768 -65.44436,-38.3117 -171.33372,45.9088"
           id="path15"
           sodipodi:nodetypes="ccccccc" /><path
           style="fill:none;stroke:#ffffff;stroke-width:70;stroke-linecap:butt;stroke-linejoin:round;stroke-dasharray:none;stroke-opacity:1"
           d="m 723.91778,1152.6629 32.55852,121.51"
           id="path16" /><path
           style="fill:none;stroke:#ffffff;stroke-width:70;stroke-linecap:butt;stroke-linejoin:round;stroke-dasharray:none;stroke-opacity:1"
           d="m 857.64776,1116.83 46.52039,173.6165"
           id="path17" /><path
           style="fill:none;stroke:#ffffff;stroke-width:70;stroke-linecap:butt;stroke-linejoin:round;stroke-dasharray:none;stroke-opacity:1"
           d="m 545.88455,1060.6921 59.88842,223.5066"
           id="path18" /><path
           style="fill:none;stroke:#ffffff;stroke-width:70;stroke-linecap:butt;stroke-linejoin:round;stroke-dasharray:none;stroke-opacity:1"
           d="M 891.57737,978.19169 710.5169,883.01462 512.49347,936.07483 585.42968,972.05472"
           id="path19" /><path
           style="display:inline;fill:none;stroke:#ffffff;stroke-width:60;stroke-linecap:butt;stroke-linejoin:round;stroke-dasharray:none;stroke-opacity:1"
           id="path20"
           sodipodi:type="arc"
           sodipodi:cx="1000"
           sodipodi:cy="940"
           sodipodi:rx="535"
           sodipodi:ry="535"
           sodipodi:start="0.2414405"
           sodipodi:end="0.9537923"
           sodipodi:arc-type="arc"
           d="m 1519.4821,1067.9194 a 535,535 0 0 1 -209.9342,308.4349"
           sodipodi:open="true" /><path
           style="fill:none;stroke:#ffffff;stroke-width:35;stroke-linecap:butt;stroke-linejoin:round;stroke-dasharray:none;stroke-opacity:1"
           d="m 902.51838,1039.5611 186.23282,-49.90097 95.6526,30.81097 60.1438,-72.55649 112.902,-2.37329 29.9695,-29.18821 137.8514,13.59098 -86.06,73.60511 -94.8468,-3.5353 -51.6228,100.1123 -129.7892,34.7769 z"
           id="path23"
           sodipodi:nodetypes="cccccccccccc" /><text
           xml:space="preserve"
           style="font-weight:bold;font-size:236.955px;line-height:0.9;font-family:Gotham;-inkscape-font-specification:'Gotham Bold';text-align:start;letter-spacing:0px;word-spacing:710.865px;writing-mode:lr-tb;direction:ltr;text-anchor:start;fill:#ffffff;stroke:none;stroke-width:35;stroke-linecap:butt;stroke-linejoin:round;stroke-dasharray:none;stroke-opacity:1"
           x="461.99359"
           y="1624.8009"
           id="text23"><tspan
             sodipodi:role="line"
             id="tspan23"
             x="461.99359"
             y="1624.8009"
             style="fill:#ffffff;stroke:none;stroke-width:35;stroke-opacity:1">KGΛMΞX</tspan></text><path
           style="fill:none;stroke:#ffffff;stroke-width:40;stroke-linecap:butt;stroke-linejoin:round;stroke-dasharray:none;stroke-opacity:1"
           d="m 739.27405,605.65573 86.93332,-23.29372 7.76457,28.97778 -57.95555,15.52914 15.52915,57.95555 -28.97778,7.76457 z"
           id="path24"
           sodipodi:nodetypes="ccccccc" /><path
           style="fill:none;stroke:#ffffff;stroke-width:40;stroke-linecap:butt;stroke-linejoin:round;stroke-dasharray:none;stroke-opacity:1"
           d="m 911.24601,590.63426 -7.76457,-28.97777 28.97777,-7.76457 7.76458,28.97776 z"
           id="path25" /><path
           style="fill:none;stroke:#ffffff;stroke-width:40;stroke-linecap:butt;stroke-linejoin:round;stroke-dasharray:none;stroke-opacity:1"
           d="m 1096.6667,509.89268 23.2937,86.93332 -28.9778,7.76457 -15.5291,-57.95555 -57.9556,15.52915 -7.7646,-28.97779 z"
           id="path26"
           sodipodi:nodetypes="ccccccc" /><path
           style="fill:none;stroke:#ffffff;stroke-width:40;stroke-linecap:butt;stroke-linejoin:round;stroke-dasharray:none;stroke-opacity:1"
           d="m 1111.6881,681.86464 28.9778,-7.76457 7.7646,28.97777 -28.9778,7.76458 z"
           id="path27" /><path
           style="fill:none;stroke:#ffffff;stroke-width:40;stroke-linecap:butt;stroke-linejoin:round;stroke-dasharray:none;stroke-opacity:1"
           d="m 1192.4297,867.28523 -86.9333,23.29372 -7.7646,-28.97778 57.9556,-15.52914 -15.5292,-57.95555 28.9778,-7.76458 z"
           id="path28"
           sodipodi:nodetypes="ccccccc" /><path
           style="fill:none;stroke:#ffffff;stroke-width:40;stroke-linecap:butt;stroke-linejoin:round;stroke-dasharray:none;stroke-opacity:1"
           d="m 1020.4577,882.3067 7.7646,28.97777 -28.97781,7.76457 -7.76458,-28.97777 z"
           id="path29" /><path
           style="fill:none;stroke:#ffffff;stroke-width:40;stroke-linecap:butt;stroke-linejoin:round;stroke-dasharray:none;stroke-opacity:1"
           d="m 835.0371,963.04828 -23.29372,-86.93332 28.97778,-7.76457 15.52914,57.95555 57.95555,-15.52915 7.76457,28.97778 z"
           id="path30"
           sodipodi:nodetypes="ccccccc" /><path
           style="fill:none;stroke:#ffffff;stroke-width:40;stroke-linecap:butt;stroke-linejoin:round;stroke-dasharray:none;stroke-opacity:1"
           d="m 820.01563,791.07632 -28.97777,7.76457 -7.76457,-28.97777 28.97777,-7.76458 z"
           id="path31" /><path
           style="fill:#ffffff;stroke:#ffffff;stroke-width:40;stroke-linecap:butt;stroke-linejoin:round;stroke-dasharray:none;stroke-opacity:1"
           d="m 935.23323,718.79281 48.29629,-12.94096 12.94095,48.29629 -48.29629,12.94096 z"
           id="path32" /></g></g></g></svg>
