<?xml version="1.0" encoding="UTF-8" standalone="no"?>
<!-- Created with Inkscape (http://www.inkscape.org/) -->

<svg
   width="500"
   height="500"
   viewBox="0 0 500 500"
   version="1.1"
   id="svg1"
   inkscape:version="1.4.2 (1:1.4.2+202505120737+ebf0e940d0)"
   xml:space="preserve"
   sodipodi:docname="home-icon-kgamex.svg"
   xmlns:inkscape="http://www.inkscape.org/namespaces/inkscape"
   xmlns:sodipodi="http://sodipodi.sourceforge.net/DTD/sodipodi-0.dtd"
   xmlns="http://www.w3.org/2000/svg"
   xmlns:svg="http://www.w3.org/2000/svg"><sodipodi:namedview
     id="namedview1"
     pagecolor="#505050"
     bordercolor="#eeeeee"
     borderopacity="1"
     inkscape:showpageshadow="0"
     inkscape:pageopacity="0"
     inkscape:pagecheckerboard="0"
     inkscape:deskcolor="#505050"
     inkscape:document-units="px"
     showgrid="false"
     inkscape:zoom="3.212"
     inkscape:cx="378.73599"
     inkscape:cy="443.49315"
     inkscape:window-width="1862"
     inkscape:window-height="1011"
     inkscape:window-x="0"
     inkscape:window-y="0"
     inkscape:window-maximized="1"
     inkscape:current-layer="g1" /><defs
     id="defs1"><inkscape:perspective
       sodipodi:type="inkscape:persp3d"
       inkscape:vp_x="0 : 1000 : 1"
       inkscape:vp_y="0 : 1000 : 0"
       inkscape:vp_z="2000 : 1000 : 1"
       inkscape:persp3d-origin="1000 : 666.66667 : 1"
       id="perspective49" /></defs><g
     inkscape:label="Calque 1"
     inkscape:groupmode="layer"
     id="layer1"><g
       id="g2"
       transform="scale(0.25)"><g
         inkscape:label="Image"
         id="g1"
         style="display:inline"><path
           style="fill:none;stroke:#ffffff;stroke-width:70;stroke-linecap:round;stroke-linejoin:round;stroke-dasharray:none;stroke-opacity:1"
           d="M 445,1380 H 1555"
           id="path1"
           sodipodi:nodetypes="cc" /><path
           style="display:inline;fill:none;stroke:#ffffff;stroke-width:60;stroke-linecap:butt;stroke-linejoin:round;stroke-dasharray:none;stroke-opacity:1"
           id="path2"
           sodipodi:type="arc"
           sodipodi:cx="1000"
           sodipodi:cy="940"
           sodipodi:rx="535"
           sodipodi:ry="535"
           sodipodi:start="2.1660841"
           sodipodi:end="6.1208362"
           sodipodi:arc-type="arc"
           d="M 700.00033,1382.9731 A 535,535 0 0 1 496.11739,760.20201 535,535 0 0 1 1048.1897,407.17475 535,535 0 0 1 1527.9649,853.52428"
           sodipodi:open="true" /><path
           id="path14"
           style="fill:none;stroke:#ffffff;stroke-width:70;stroke-linecap:butt;stroke-linejoin:round;stroke-dasharray:none;stroke-opacity:1"
           d="m 472.00021,1017.8867 238.72988,138.3098 161.77061,-43.3463 276.6227,98.0637 v 0 l 187.0188,-50.1116 42.4293,-88.7754 164.0618,-2.7845 64.4167,-189.6443 -258.3228,-23.90171 -34.5029,37.02593 -120.7054,-18.50632 -131.7591,58.37544 -263.07246,70.49006 -213.25766,-31.02678 -115.96104,31.07168" /><path
           style="fill:none;stroke:#ffffff;stroke-width:70;stroke-linecap:butt;stroke-linejoin:round;stroke-dasharray:none;stroke-opacity:1"
           d="m 1460.6024,1070.6347 -54.8899,174.2343 -395.5894,105.9979 -105.95495,-60.4204 -54.02833,14.4768 -65.44436,-38.3117 -171.33372,45.9088"
           id="path15"
           sodipodi:nodetypes="ccccccc" /><path
           style="fill:none;stroke:#ffffff;stroke-width:70;stroke-linecap:butt;stroke-linejoin:round;stroke-dasharray:none;stroke-opacity:1"
           d="m 723.91778,1152.6629 32.55852,121.51"
           id="path16" /><path
           style="fill:none;stroke:#ffffff;stroke-width:70;stroke-linecap:butt;stroke-linejoin:round;stroke-dasharray:none;stroke-opacity:1"
           d="m 857.64776,1116.83 46.52039,173.6165"
           id="path17" /><path
           style="fill:none;stroke:#ffffff;stroke-width:70;stroke-linecap:butt;stroke-linejoin:round;stroke-dasharray:none;stroke-opacity:1"
           d="m 545.88455,1060.6921 59.88842,223.5066"
           id="path18" /><path
           style="fill:none;stroke:#ffffff;stroke-width:70;stroke-linecap:butt;stroke-linejoin:round;stroke-dasharray:none;stroke-opacity:1"
           d="M 891.57737,978.19169 710.5169,883.01462 512.49347,936.07483 585.42968,972.05472"
           id="path19" /><path
           style="display:inline;fill:none;stroke:#ffffff;stroke-width:60;stroke-linecap:butt;stroke-linejoin:round;stroke-dasharray:none;stroke-opacity:1"
           id="path20"
           sodipodi:type="arc"
           sodipodi:cx="1000"
           sodipodi:cy="940"
           sodipodi:rx="535"
           sodipodi:ry="535"
           sodipodi:start="0.2414405"
           sodipodi:end="0.9537923"
           sodipodi:arc-type="arc"
           d="m 1519.4821,1067.9194 a 535,535 0 0 1 -209.9342,308.4349"
           sodipodi:open="true" /><path
           style="fill:none;stroke:#ffffff;stroke-width:35;stroke-linecap:butt;stroke-linejoin:round;stroke-dasharray:none;stroke-opacity:1"
           d="m 902.51838,1039.5611 186.23282,-49.90097 95.6526,30.81097 60.1438,-72.55649 112.902,-2.37329 29.9695,-29.18821 137.8514,13.59098 -86.06,73.60511 -94.8468,-3.5353 -51.6228,100.1123 -129.7892,34.7769 z"
           id="path23"
           sodipodi:nodetypes="cccccccccccc" /><path
           d="m 481.89781,1624.8009 h 36.49107 v -50.7084 l 19.19336,-19.9042 51.41923,70.6126 h 43.83668 l -70.61259,-95.4929 67.76913,-70.3756 h -44.7845 l -66.82131,72.5082 v -72.5082 h -36.49107 z m 239.79828,2.8435 c 30.33024,0 53.78879,-11.8478 70.84955,-26.302 v -72.0344 h -72.03433 v 31.5151 h 36.72803 v 23.6955 c -9.24124,6.6347 -20.85204,9.9521 -34.35848,9.9521 -29.38242,0 -50.23446,-22.2738 -50.23446,-52.604 v -0.474 c 0,-28.1976 21.089,-51.6561 47.62796,-51.6561 18.9564,0 30.80415,6.1608 43.36277,16.8238 l 22.98463,-27.7238 c -17.06076,-14.6912 -35.54325,-22.7477 -65.16263,-22.7477 -50.23446,0 -86.96248,38.6237 -86.96248,85.7778 v 0.4739 c 0,49.2866 35.54325,85.3038 87.19944,85.3038 z m 193.35537,-169.8968 h -32.22588 l -69.42781,167.0533 h 39.33453 l 45.49536,-115.871 45.96927,115.871 h 40.28235 z m 95.01904,167.0533 h 35.7802 v -107.5776 l 46.2063,70.1387 h 0.9478 l 46.6801,-70.8495 v 108.2884 h 36.2541 v -165.8685 h -39.3345 l -43.5997,70.1387 -43.5997,-70.1387 h -39.3346 z m 328.1827,-132.9318 v -32.9367 h -128.6665 v 32.9367 z m -5.9239,65.8735 v -32.9367 h -116.8188 v 32.9367 z m 7.1087,67.0583 v -32.9367 h -131.0361 v 32.9367 z m 134.8275,-165.8685 -35.3063,53.7888 -34.5954,-53.7888 h -42.6519 l 55.4474,81.5125 -57.817,84.356 h 41.4671 l 37.4389,-56.8692 37.202,56.8692 h 42.6519 l -57.8171,-84.8299 55.4475,-81.0386 z"
           id="text23"
           style="font-weight:bold;font-size:236.955px;line-height:0.9;font-family:Gotham;-inkscape-font-specification:'Gotham Bold';letter-spacing:0px;word-spacing:710.865px;fill:#ffffff;stroke-width:35;stroke-linejoin:round"
           aria-label="KGΛMΞX" /><path
           style="fill:none;stroke:#ffffff;stroke-width:40;stroke-linecap:butt;stroke-linejoin:round;stroke-dasharray:none;stroke-opacity:1"
           d="m 739.27405,605.65573 86.93332,-23.29372 7.76457,28.97778 -57.95555,15.52914 15.52915,57.95555 -28.97778,7.76457 z"
           id="path24"
           sodipodi:nodetypes="ccccccc" /><path
           style="fill:none;stroke:#ffffff;stroke-width:40;stroke-linecap:butt;stroke-linejoin:round;stroke-dasharray:none;stroke-opacity:1"
           d="m 911.24601,590.63426 -7.76457,-28.97777 28.97777,-7.76457 7.76458,28.97776 z"
           id="path25" /><path
           style="fill:none;stroke:#ffffff;stroke-width:40;stroke-linecap:butt;stroke-linejoin:round;stroke-dasharray:none;stroke-opacity:1"
           d="m 1096.6667,509.89268 23.2937,86.93332 -28.9778,7.76457 -15.5291,-57.95555 -57.9556,15.52915 -7.7646,-28.97779 z"
           id="path26"
           sodipodi:nodetypes="ccccccc" /><path
           style="fill:none;stroke:#ffffff;stroke-width:40;stroke-linecap:butt;stroke-linejoin:round;stroke-dasharray:none;stroke-opacity:1"
           d="m 1111.6881,681.86464 28.9778,-7.76457 7.7646,28.97777 -28.9778,7.76458 z"
           id="path27" /><path
           style="fill:none;stroke:#ffffff;stroke-width:40;stroke-linecap:butt;stroke-linejoin:round;stroke-dasharray:none;stroke-opacity:1"
           d="m 1192.4297,867.28523 -86.9333,23.29372 -7.7646,-28.97778 57.9556,-15.52914 -15.5292,-57.95555 28.9778,-7.76458 z"
           id="path28"
           sodipodi:nodetypes="ccccccc" /><path
           style="fill:none;stroke:#ffffff;stroke-width:40;stroke-linecap:butt;stroke-linejoin:round;stroke-dasharray:none;stroke-opacity:1"
           d="m 1020.4577,882.3067 7.7646,28.97777 -28.97781,7.76457 -7.76458,-28.97777 z"
           id="path29" /><path
           style="fill:none;stroke:#ffffff;stroke-width:40;stroke-linecap:butt;stroke-linejoin:round;stroke-dasharray:none;stroke-opacity:1"
           d="m 835.0371,963.04828 -23.29372,-86.93332 28.97778,-7.76457 15.52914,57.95555 57.95555,-15.52915 7.76457,28.97778 z"
           id="path30"
           sodipodi:nodetypes="ccccccc" /><path
           style="fill:none;stroke:#ffffff;stroke-width:40;stroke-linecap:butt;stroke-linejoin:round;stroke-dasharray:none;stroke-opacity:1"
           d="m 820.01563,791.07632 -28.97777,7.76457 -7.76457,-28.97777 28.97777,-7.76458 z"
           id="path31" /><path
           style="fill:#ffffff;stroke:#ffffff;stroke-width:40;stroke-linecap:butt;stroke-linejoin:round;stroke-dasharray:none;stroke-opacity:1"
           d="m 935.23323,718.79281 48.29629,-12.94096 12.94095,48.29629 -48.29629,12.94096 z"
           id="path32" /></g></g></g></svg>
