<?xml version="1.0" encoding="UTF-8" standalone="no"?>
<!-- Created with Inkscape (http://www.inkscape.org/) -->

<svg
   version="1.1"
   id="svg1"
   width="300"
   height="610"
   viewBox="0 0 300 610"
   xml:space="preserve"
   xmlns:xlink="http://www.w3.org/1999/xlink"
   xmlns="http://www.w3.org/2000/svg"
   xmlns:svg="http://www.w3.org/2000/svg"><defs
     id="defs1"><linearGradient
       id="linearGradient16"><stop
         style="stop-color:#0055ff;stop-opacity:1;"
         offset="0"
         id="stop15" /><stop
         style="stop-color:#0080ff;stop-opacity:1;"
         offset="1"
         id="stop16" /></linearGradient><linearGradient
       xlink:href="#linearGradient16"
       id="linearGradient55"
       gradientUnits="userSpaceOnUse"
       gradientTransform="translate(10,-50)"
       x1="160"
       y1="640"
       x2="160"
       y2="420" /><linearGradient
       xlink:href="#linearGradient16"
       id="linearGradient56"
       gradientUnits="userSpaceOnUse"
       gradientTransform="translate(10,-50)"
       x1="200"
       y1="640"
       x2="200"
       y2="420" /><linearGradient
       xlink:href="#linearGradient16"
       id="linearGradient60"
       gradientUnits="userSpaceOnUse"
       gradientTransform="translate(200,15)"
       x1="10"
       y1="210"
       x2="10"
       y2="160" /><linearGradient
       xlink:href="#linearGradient16"
       id="linearGradient62"
       gradientUnits="userSpaceOnUse"
       gradientTransform="translate(277.12812,-50.980776)"
       x1="10"
       y1="210"
       x2="10"
       y2="160" /></defs><g
     id="g54"><path
       style="display:inline;fill:none;fill-opacity:1;stroke:url(#linearGradient55);stroke-width:40;stroke-linecap:round;stroke-linejoin:round;stroke-dasharray:none;stroke-opacity:1"
       d="M 190,190 V 370 L 150,590 H 130"
       id="path11" /><path
       style="display:inline;fill:none;fill-opacity:1;stroke:url(#linearGradient56);stroke-width:40;stroke-linecap:round;stroke-linejoin:round;stroke-dasharray:none;stroke-opacity:1"
       d="m 190,190 v 180 l 40,220 h -20"
       id="path34" /><circle
       style="display:inline;fill:#0080ff;fill-opacity:1;stroke:none;stroke-width:44;stroke-linecap:round;stroke-linejoin:round;stroke-dasharray:none;stroke-opacity:1"
       id="circle34"
       cx="190"
       cy="110"
       r="110" /><ellipse
       style="fill:#000000;fill-opacity:1;stroke:none;stroke-width:40;stroke-linecap:round;stroke-linejoin:round;stroke-dasharray:none;stroke-opacity:1"
       id="ellipse34"
       cx="130"
       cy="100"
       rx="10"
       ry="20" /><path
       id="ellipse35"
       style="fill:#000000;fill-opacity:1;stroke:none;stroke-width:40;stroke-linecap:round;stroke-linejoin:round;stroke-dasharray:none;stroke-opacity:1"
       d="m 164.89062,82.554688 -13.31054,6.654296 a 10,20 0 0 0 0,0.002 A 10,20 0 0 0 150,100 a 10,20 0 0 0 10,20 10,20 0 0 0 10,-20 10,20 0 0 0 -5.10938,-17.445312 z" /><circle
       style="fill:url(#linearGradient60);fill-opacity:1;stroke:none;stroke-width:40;stroke-linecap:round;stroke-linejoin:round;stroke-dasharray:none;stroke-opacity:1"
       id="circle35"
       cx="215"
       cy="200"
       r="25" /><path
       style="display:inline;fill:none;fill-opacity:1;stroke:#000000;stroke-width:3;stroke-linecap:round;stroke-linejoin:round;stroke-dasharray:none;stroke-opacity:1"
       id="path54"
       d="m -150,-160 a 45,45 0 0 1 -31.81981,13.18019"
       transform="scale(-1)" /><path
       id="rect90"
       style="fill:#ffffff;stroke-width:2.55841;stroke-linecap:round;paint-order:stroke fill markers"
       d="m 14.81191,246.60518 53.12721,-14.23021 c 7.76207,28.97845 35.18809,73.39481 35.18809,73.39481 L 50,320 c 0,0 -27.42601,-44.41638 -35.188086,-73.39479 z" /><rect
       style="fill:#d4aa00;stroke-width:3.38446;stroke-linecap:round;paint-order:stroke fill markers"
       id="rect91"
       width="70"
       height="100"
       x="-59.498047"
       y="232.04021"
       ry="10"
       rx="10"
       transform="rotate(-14.995058)" /><rect
       style="fill:#b3b3b3;stroke-width:3;stroke-linecap:round;paint-order:stroke fill markers"
       id="rect92"
       width="30"
       height="10"
       x="-39.498035"
       y="227.04018"
       ry="5"
       rx="5"
       transform="rotate(-14.995058)" /><circle
       style="fill:url(#linearGradient62);fill-opacity:1;stroke:none;stroke-width:40;stroke-linecap:round;stroke-linejoin:round;stroke-dasharray:none;stroke-opacity:1"
       id="circle36"
       cx="292.12814"
       cy="134.01924"
       r="25"
       transform="rotate(60)" /></g></svg>
