<?xml version="1.0" encoding="UTF-8" standalone="no"?>
<!-- Created with Inkscape (http://www.inkscape.org/) -->

<svg
   width="50"
   height="50"
   viewBox="0 0 50 50"
   version="1.1"
   id="svg1"
   xml:space="preserve"
   xmlns="http://www.w3.org/2000/svg"
   xmlns:svg="http://www.w3.org/2000/svg"><defs
     id="defs1" /><g
     id="layer1"
     transform="translate(-60,-60)"><g
       id="g24"
       transform="translate(-300,60)"><circle
         style="fill:none;stroke:#000000;stroke-width:3;stroke-dasharray:none;paint-order:stroke fill markers"
         id="path18"
         cx="385"
         cy="25"
         r="15" /><path
         style="fill:none;stroke:#000000;stroke-width:3;stroke-dasharray:none;paint-order:stroke fill markers"
         d="m 375,14 h 11 a 2,2 45 0 1 2,2 2,2 135 0 1 -2,2 h -2 a 2,2 135 0 0 -2,2 2,2 135 0 1 -2,2 h -1 a 2,2 135 0 0 -2,2 2,2 135 0 1 -2,2 h -5"
         id="path22" /><path
         style="fill:none;stroke:#000000;stroke-width:3;stroke-dasharray:none;paint-order:stroke fill markers"
         d="M 390,39.40625 V 36 a 2,2 45 0 0 -2,-2 h -4 a 2,2 45 0 1 -2,-2 2,2 135 0 1 2,-2 h 1 a 2,2 135 0 0 2,-2 2,2 135 0 1 2,-2 h 3 a 2,2 135 0 0 2,-2 2,2 135 0 1 2,-2 h 3"
         id="path23" /></g></g></svg>
