<?xml version="1.0" encoding="UTF-8" standalone="no"?>
<!-- Created with Inkscape (http://www.inkscape.org/) -->

<svg
   width="50"
   height="50"
   viewBox="0 0 50 50"
   version="1.1"
   id="svg1"
   xml:space="preserve"
   xmlns="http://www.w3.org/2000/svg"
   xmlns:svg="http://www.w3.org/2000/svg"><defs
     id="defs1" /><g
     id="layer1"
     transform="translate(-120,-60)"><g
       id="g20"
       transform="translate(-300,60)"><path
         id="path19"
         style="fill:none;stroke:#000000;stroke-width:3;stroke-linecap:round;paint-order:stroke fill markers"
         d="m 446.12109,9.0390625 -2.0957,4.5019535 a 11.5,11.5 0 0 0 -3.5332,0.878906 l -3.96094,-2.996094 a 16,16 0 0 0 -2.02539,1.498047 l 1.70312,4.666016 a 11.5,11.5 0 0 0 -1.87695,3.11914 l -4.91992,0.681641 a 16,16 0 0 0 -0.37305,2.490234 l 4.50196,2.095703 a 11.5,11.5 0 0 0 0.8789,3.533203 l -2.99609,3.960938 a 16,16 0 0 0 1.49805,2.025391 l 4.66601,-1.703125 a 11.5,11.5 0 0 0 3.11914,1.876953 l 0.68164,4.919922 a 16,16 0 0 0 2.49024,0.373047 l 2.0957,-4.501954 a 11.5,11.5 0 0 0 3.5332,-0.878906 l 3.96094,2.996094 a 16,16 0 0 0 2.02539,-1.498047 l -1.70312,-4.666016 a 11.5,11.5 0 0 0 1.87695,-3.11914 l 4.91992,-0.681641 a 16,16 0 0 0 0.37305,-2.490234 l -4.50196,-2.095703 a 11.5,11.5 0 0 0 -0.8789,-3.533203 l 2.99609,-3.960938 a 16,16 0 0 0 -1.49805,-2.025391 l -4.66601,1.703125 a 11.5,11.5 0 0 0 -3.11914,-1.876953 l -0.68164,-4.9199216 a 16,16 0 0 0 -2.49024,-0.3730469 z" /><circle
         style="fill:none;stroke:#000000;stroke-width:3;stroke-linecap:round;stroke-linejoin:miter;paint-order:stroke fill markers"
         id="path20"
         cx="445"
         cy="25"
         r="5" /></g></g></svg>
