<?xml version="1.0" encoding="UTF-8" standalone="no"?>
<!-- Created with Inkscape (http://www.inkscape.org/) -->

<svg
   width="50"
   height="50"
   viewBox="0 0 50 50"
   version="1.1"
   id="svg1"
   xmlns="http://www.w3.org/2000/svg"
   xmlns:svg="http://www.w3.org/2000/svg">
  <defs
     id="defs1" />
  <g
     id="layer1"
     transform="translate(-180)">
    <g
       id="g33"
       transform="translate(60)"
       style="stroke-width:3;stroke-dasharray:none">
      <path
         style="fill:none;stroke:#000000;stroke-width:3;stroke-linecap:butt;stroke-linejoin:miter;stroke-dasharray:none;paint-order:stroke fill markers"
         id="path25"
         d="m 145,10 12.99038,7.5 0,15 L 145,40 l -12.99038,-7.5 0,-15 z" />
      <path
         style="fill:none;stroke:#000000;stroke-width:3;stroke-linecap:butt;stroke-linejoin:miter;stroke-dasharray:none;paint-order:stroke fill markers"
         d="M 132.00962,17.5 145,25 157.99038,17.5"
         id="path26" />
      <path
         style="fill:none;stroke:#000000;stroke-width:3;stroke-linecap:butt;stroke-linejoin:miter;stroke-dasharray:none;paint-order:stroke fill markers"
         d="M 145,25 V 40"
         id="path27" />
      <path
         style="fill:#000000;stroke:none;stroke-width:3;stroke-linecap:butt;stroke-linejoin:miter;stroke-dasharray:none;paint-order:stroke fill markers"
         d="M 143.26795,14.999999 145,16 146.73205,14.999999 145,14 Z"
         id="path28" />
      <path
         style="fill:#000000;stroke:none;stroke-width:3;stroke-linecap:butt;stroke-linejoin:miter;stroke-dasharray:none;paint-order:stroke fill markers"
         d="M 143.26795,19.999999 145,21 146.73205,19.999999 145,19 Z"
         id="path29" />
      <path
         style="fill:#000000;stroke:none;stroke-width:3;stroke-linecap:butt;stroke-linejoin:miter;stroke-dasharray:none;paint-order:stroke fill markers"
         d="m 137.63879,27.25 -1e-5,2 1.73206,0.999999 V 28.25 Z"
         id="path30" />
      <path
         style="fill:#000000;stroke:none;stroke-width:3;stroke-linecap:butt;stroke-linejoin:miter;stroke-dasharray:none;paint-order:stroke fill markers"
         d="m 154.52627,28.500004 -1.73205,0.999999 1e-5,1.999991 1.73205,-0.999991 z"
         id="path34" />
      <path
         style="fill:#000000;stroke:none;stroke-width:3;stroke-linecap:butt;stroke-linejoin:miter;stroke-dasharray:none;paint-order:stroke fill markers"
         d="m 150.19614,26.000005 -1.73205,0.999998 1e-5,1.999991 1.73205,-0.999991 z"
         id="path35" />
      <path
         style="fill:#000000;stroke:none;stroke-width:3;stroke-linecap:butt;stroke-linejoin:miter;stroke-dasharray:none;paint-order:stroke fill markers"
         d="m 152.36121,27.250005 -1.73205,0.999998 v 1.999991 l 1.73205,-0.999991 z"
         id="path36" />
    </g>
  </g>
</svg>
