<?xml version="1.0" encoding="UTF-8" standalone="no"?>
<!-- Created with Inkscape (http://www.inkscape.org/) -->

<svg
   width="500"
   height="500"
   viewBox="0 0 500 500"
   version="1.1"
   id="svg1"
   inkscape:version="1.4.3 (0d15f75042, 2025-12-25)"
   xml:space="preserve"
   sodipodi:docname="applications.svg"
   inkscape:export-batch-name=""
   inkscape:export-batch-path="/var/www/html/v3.kgamex.vk/client/public/images/applications"
   xmlns:inkscape="http://www.inkscape.org/namespaces/inkscape"
   xmlns:sodipodi="http://sodipodi.sourceforge.net/DTD/sodipodi-0.dtd"
   xmlns:xlink="http://www.w3.org/1999/xlink"
   xmlns="http://www.w3.org/2000/svg"
   xmlns:svg="http://www.w3.org/2000/svg"><sodipodi:namedview
     id="namedview1"
     pagecolor="#505050"
     bordercolor="#eeeeee"
     borderopacity="1"
     inkscape:showpageshadow="0"
     inkscape:pageopacity="0"
     inkscape:pagecheckerboard="0"
     inkscape:deskcolor="#505050"
     inkscape:document-units="px"
     inkscape:zoom="0.35355339"
     inkscape:cx="1472.1963"
     inkscape:cy="510.53109"
     inkscape:window-width="1862"
     inkscape:window-height="1011"
     inkscape:window-x="0"
     inkscape:window-y="0"
     inkscape:window-maximized="1"
     inkscape:current-layer="g59"
     showgrid="true"><inkscape:grid
       id="grid1"
       units="px"
       originx="0"
       originy="0"
       spacingx="1"
       spacingy="1"
       empcolor="#0099e5"
       empopacity="0.30196078"
       color="#0099e5"
       opacity="0.14902"
       empspacing="10"
       enabled="true"
       visible="true" /><inkscape:page
       x="0"
       y="0"
       width="500"
       height="500"
       id="page5"
       margin="0"
       bleed="0"
       inkscape:label="shotcut" /><inkscape:page
       x="520"
       y="0"
       width="500"
       height="500"
       id="page6"
       margin="0"
       bleed="0"
       inkscape:label="code" /><inkscape:page
       x="1040"
       y="0"
       width="500"
       height="500"
       id="page7"
       margin="0"
       bleed="0"
       inkscape:label="inkscape" /><inkscape:page
       x="1560"
       y="0"
       width="500"
       height="500"
       id="page13"
       margin="0"
       bleed="0"
       inkscape:label="unity" /><inkscape:page
       x="2080"
       y="0"
       width="500"
       height="500"
       id="page14"
       margin="0"
       bleed="0"
       inkscape:label="intellij" /></sodipodi:namedview><defs
     id="defs1"><linearGradient
       id="linearGradient1"
       inkscape:collect="always"><stop
         style="stop-color:#0d4458;stop-opacity:1;"
         offset="0"
         id="stop2" /><stop
         style="stop-color:#115c77;stop-opacity:1;"
         offset="1"
         id="stop1" /></linearGradient><linearGradient
       inkscape:collect="always"
       xlink:href="#linearGradient1"
       id="linearGradient2"
       x1="0"
       y1="250"
       x2="170"
       y2="250"
       gradientUnits="userSpaceOnUse" /><linearGradient
       inkscape:collect="always"
       xlink:href="#linearGradient1"
       id="linearGradient3"
       gradientUnits="userSpaceOnUse"
       x1="0"
       y1="250"
       x2="170"
       y2="250"
       gradientTransform="matrix(1.8823529,0,0,1,-499.99999,0)" /><filter
       id="filter0_d"
       x="-8.39411"
       y="15.8291"
       width="116.727"
       height="92.2456"
       filterUnits="userSpaceOnUse"
       color-interpolation-filters="sRGB"><feFlood
         flood-opacity="0"
         result="BackgroundImageFix"
         id="feFlood6" /><feColorMatrix
         in="SourceAlpha"
         type="matrix"
         values="0 0 0 0 0 0 0 0 0 0 0 0 0 0 0 0 0 0 127 0"
         id="feColorMatrix6" /><feOffset
         id="feOffset6" /><feGaussianBlur
         stdDeviation="4.16667"
         id="feGaussianBlur6" /><feColorMatrix
         type="matrix"
         values="0 0 0 0 0 0 0 0 0 0 0 0 0 0 0 0 0 0 0.25 0"
         id="feColorMatrix7" /><feBlend
         mode="overlay"
         in2="BackgroundImageFix"
         result="effect1_dropShadow"
         id="feBlend7" /><feBlend
         mode="normal"
         in="SourceGraphic"
         in2="effect1_dropShadow"
         result="shape"
         id="feBlend8" /></filter><filter
       id="filter1_d"
       x="60.4167"
       y="-8.07558"
       width="47.9167"
       height="116.151"
       filterUnits="userSpaceOnUse"
       color-interpolation-filters="sRGB"><feFlood
         flood-opacity="0"
         result="BackgroundImageFix"
         id="feFlood8" /><feColorMatrix
         in="SourceAlpha"
         type="matrix"
         values="0 0 0 0 0 0 0 0 0 0 0 0 0 0 0 0 0 0 127 0"
         id="feColorMatrix8" /><feOffset
         id="feOffset8" /><feGaussianBlur
         stdDeviation="4.16667"
         id="feGaussianBlur8" /><feColorMatrix
         type="matrix"
         values="0 0 0 0 0 0 0 0 0 0 0 0 0 0 0 0 0 0 0.25 0"
         id="feColorMatrix9" /><feBlend
         mode="overlay"
         in2="BackgroundImageFix"
         result="effect1_dropShadow"
         id="feBlend9" /><feBlend
         mode="normal"
         in="SourceGraphic"
         in2="effect1_dropShadow"
         result="shape"
         id="feBlend10" /></filter><linearGradient
       id="paint0_linear"
       x1="49.9392"
       y1="0.257812"
       x2="49.9392"
       y2="99.7423"
       gradientUnits="userSpaceOnUse"><stop
         stop-color="white"
         id="stop10" /><stop
         offset="1"
         stop-color="white"
         stop-opacity="0"
         id="stop11" /></linearGradient><linearGradient
       id="a"
       gradientUnits="userSpaceOnUse"><stop
         style="stop-color:#fff;stop-opacity:1"
         offset="0"
         id="stop1-3" /><stop
         style="stop-color:#fff;stop-opacity:0"
         offset="1"
         id="stop2-5" /></linearGradient><linearGradient
       id="b"
       gradientUnits="userSpaceOnUse"><stop
         style="stop-color:#c0cdf9;stop-opacity:1"
         offset="0"
         id="stop3" /><stop
         style="stop-color:#07092d;stop-opacity:.28804347"
         offset="1"
         id="stop4" /></linearGradient><linearGradient
       x1="82.118591"
       y1="20"
       x2="60"
       y2="40"
       id="t"
       xlink:href="#b"
       gradientUnits="userSpaceOnUse" /><linearGradient
       x1="33"
       y1="35"
       x2="58"
       y2="60"
       id="u"
       xlink:href="#a"
       gradientUnits="userSpaceOnUse"
       gradientTransform="matrix(1.00918,0,0,1.00918,-0.3890738,-0.3831933)" /><linearGradient
       x1="60"
       y1="20"
       x2="90"
       y2="50"
       id="v"
       xlink:href="#a"
       gradientUnits="userSpaceOnUse" /><linearGradient
       x1="231.625"
       y1="195.1875"
       x2="231.75"
       y2="201.5"
       id="A"
       xlink:href="#a"
       gradientUnits="userSpaceOnUse" /><linearGradient
       x1="231.37646"
       y1="195.62132"
       x2="231.37646"
       y2="200.07138"
       id="B"
       xlink:href="#a"
       gradientUnits="userSpaceOnUse" /><linearGradient
       id="j"><stop
         style="stop-color:#fff;stop-opacity:.33004925"
         offset="0"
         id="stop17" /><stop
         style="stop-color:#fff;stop-opacity:0"
         offset="1"
         id="stop18" /></linearGradient><linearGradient
       x1="95.5"
       y1="208.16444"
       x2="153.5"
       y2="223.5"
       id="L"
       xlink:href="#a"
       gradientUnits="userSpaceOnUse" /><linearGradient
       x1="57.225197"
       y1="76.246338"
       x2="53.63158"
       y2="84.480316"
       id="M"
       xlink:href="#n"
       gradientUnits="userSpaceOnUse"
       gradientTransform="matrix(0.88526,0,0,0.88526,5.1772151,9.2293372)" /><linearGradient
       id="n"><stop
         style="stop-color:#eeeeec;stop-opacity:1"
         offset="0"
         id="stop25" /><stop
         style="stop-color:#eeeeec;stop-opacity:0"
         offset="1"
         id="stop26" /></linearGradient><linearGradient
       x1="73.712105"
       y1="180.47572"
       x2="82.754066"
       y2="187.65974"
       id="O"
       xlink:href="#a"
       gradientUnits="userSpaceOnUse"
       gradientTransform="matrix(0.4928,0,0,0.4928,-6.0003885,-9.7225182)" /><linearGradient
       id="p"><stop
         style="stop-color:#729fcf;stop-opacity:1"
         offset="0"
         id="stop29" /><stop
         style="stop-color:#729fcf;stop-opacity:0"
         offset="1"
         id="stop30" /></linearGradient><linearGradient
       x1="180.81293"
       y1="217.5"
       x2="153.70045"
       y2="144.5"
       id="P"
       xlink:href="#p"
       gradientUnits="userSpaceOnUse"
       gradientTransform="translate(-130.16572,-83.352786)" /><radialGradient
       cx="116.31038"
       cy="250.89737"
       r="30.599579"
       fx="116.31038"
       fy="250.89737"
       id="w"
       xlink:href="#a"
       gradientUnits="userSpaceOnUse"
       gradientTransform="matrix(1.57005,0,0,1.05093,-75.500107,-22.095908)" /><radialGradient
       cx="132.44434"
       cy="251.99396"
       r="30.599579"
       fx="132.44434"
       fy="251.99396"
       id="x"
       xlink:href="#a"
       gradientUnits="userSpaceOnUse"
       gradientTransform="matrix(2.00325,0,0,1.3409,-132.8752,-95.166065)" /><radialGradient
       cx="210.25"
       cy="168.5"
       r="34.25"
       fx="210.25"
       fy="168.5"
       id="y"
       xlink:href="#a"
       gradientUnits="userSpaceOnUse"
       gradientTransform="matrix(1,0,0,0.42336,0,97.164234)" /><radialGradient
       cx="217.5"
       cy="182.08189"
       r="34.25"
       fx="217.5"
       fy="182.08189"
       id="z"
       xlink:href="#a"
       gradientUnits="userSpaceOnUse"
       gradientTransform="matrix(1,0,0,0.42336,0,97.164234)" /><radialGradient
       cx="228.21875"
       cy="204.83229"
       r="14.09375"
       fx="228.21875"
       fy="204.83229"
       id="C"
       xlink:href="#a"
       gradientUnits="userSpaceOnUse"
       gradientTransform="matrix(1,0,0,0.14775,0,174.56924)" /><radialGradient
       cx="228.21875"
       cy="204.83229"
       r="14.09375"
       fx="228.21875"
       fy="204.83229"
       id="F"
       xlink:href="#a"
       gradientUnits="userSpaceOnUse"
       gradientTransform="matrix(1,0,0,0.14775,0,174.56924)" /><radialGradient
       cx="89.875"
       cy="187.86935"
       r="22.75"
       fx="89.875"
       fy="187.86935"
       id="G"
       xlink:href="#j"
       gradientUnits="userSpaceOnUse"
       gradientTransform="matrix(1,0,0,0.40708,0,115.76014)" /><radialGradient
       cx="90.28125"
       cy="230.83626"
       r="10.46875"
       fx="90.28125"
       fy="230.83626"
       id="J"
       xlink:href="#a"
       gradientUnits="userSpaceOnUse"
       gradientTransform="matrix(1.18507,-0.32836,0.12286,0.4434,-45.068314,152.92161)" /><radialGradient
       cx="68.39994"
       cy="21.225746"
       r="54.783398"
       fx="68.39994"
       fy="21.225746"
       id="K"
       xlink:href="#a"
       gradientUnits="userSpaceOnUse"
       gradientTransform="matrix(1.72215,0,0,1.69498,-49.39526,-14.078057)" /><radialGradient
       cx="181.22731"
       cy="214.55121"
       r="22.466398"
       fx="181.22731"
       fy="214.55121"
       id="N"
       xlink:href="#a"
       gradientUnits="userSpaceOnUse"
       gradientTransform="matrix(1.35152,0,0,1.71757,-63.705646,-153.95568)" /><filter
       id="q"
       color-interpolation-filters="sRGB"
       x="-0.017255854"
       y="-0.017528899"
       width="1.0345117"
       height="1.0350578"><feGaussianBlur
         stdDeviation=".80546496"
         id="feGaussianBlur30" /></filter><filter
       id="r"
       color-interpolation-filters="sRGB"
       x="-0.074775365"
       y="-0.075958553"
       width="1.1495507"
       height="1.1519171"><feGaussianBlur
         stdDeviation="3.4903482"
         id="feGaussianBlur31" /></filter><clipPath
       id="s"><use
         transform="translate(.00000101)"
         style="opacity:.25;fill:#fff;fill-opacity:1"
         width="400"
         height="300"
         xlink:href="#d"
         id="use31" /></clipPath><path
       d="M54.1 12.5 12.9 54.7C-2.7 70.3 23 69 32.3 74.9c4.3 2.8-13.8 6.4-10.1 10.1 3.6 3.7 21.7 7.1 25.3 10.7 3.6 3.7-7.3 7.6-3.7 11.3 3.5 3.7 11.9.2 13.4 8.6 1.1 6.2 15.4 3.1 21.8-2.2 4-3.4-6.9-3.4-3.3-7.1 9-9.1 17-4.1 20.3-12.5 1.8-4.5-13.6-7.7-9.5-10.6 9.8-6.9 45.8-10.4 29.2-27L73 12.5c-5.3-5-14-5-18.9 0zm-9.9 64.7c.9 0 30.8 4 19.3 7.1-4.4 1.2-24.6-7.1-19.3-7.1zm57.2 16.6c0 2.1 16.3 3.3 15.4-.5-1.3-6.4-13.6-5.9-15.4.5zm-69.5 11.1c3.7 3.2 9.3-.7 11.1-5.2-3.6-4.7-16.9.3-11.1 5.2zm67.5-6.7c-4.6 4.2.8 8.6 5.3 5.7 1.2-.8-.1-4.7-5.3-5.7z"
       id="d" /><linearGradient
       x1="82.118591"
       y1="20"
       x2="60"
       y2="40"
       id="t-9"
       xlink:href="#b"
       gradientUnits="userSpaceOnUse" /><linearGradient
       x1="60"
       y1="20"
       x2="90"
       y2="50"
       id="v-3"
       xlink:href="#a"
       gradientUnits="userSpaceOnUse" /><linearGradient
       x1="231.625"
       y1="195.1875"
       x2="231.75"
       y2="201.5"
       id="A-6"
       xlink:href="#a"
       gradientUnits="userSpaceOnUse" /><linearGradient
       x1="231.37646"
       y1="195.62132"
       x2="231.37646"
       y2="200.07138"
       id="B-2"
       xlink:href="#a"
       gradientUnits="userSpaceOnUse" /><linearGradient
       x1="95.5"
       y1="208.16444"
       x2="153.5"
       y2="223.5"
       id="L-8"
       xlink:href="#a"
       gradientUnits="userSpaceOnUse" /><linearGradient
       x1="180.81293"
       y1="217.5"
       x2="153.70045"
       y2="144.5"
       id="P-2"
       xlink:href="#p"
       gradientUnits="userSpaceOnUse"
       gradientTransform="translate(-130.16572,-83.352786)" /><radialGradient
       cx="116.31038"
       cy="250.89737"
       r="30.599579"
       fx="116.31038"
       fy="250.89737"
       id="w-3"
       xlink:href="#a"
       gradientUnits="userSpaceOnUse"
       gradientTransform="matrix(1.57005,0,0,1.05093,-75.500107,-22.095908)" /><radialGradient
       cx="132.44434"
       cy="251.99396"
       r="30.599579"
       fx="132.44434"
       fy="251.99396"
       id="x-7"
       xlink:href="#a"
       gradientUnits="userSpaceOnUse"
       gradientTransform="matrix(2.00325,0,0,1.3409,-132.8752,-95.166065)" /><radialGradient
       cx="210.25"
       cy="168.5"
       r="34.25"
       fx="210.25"
       fy="168.5"
       id="y-5"
       xlink:href="#a"
       gradientUnits="userSpaceOnUse"
       gradientTransform="matrix(1,0,0,0.42336,0,97.164234)" /><radialGradient
       cx="217.5"
       cy="182.08189"
       r="34.25"
       fx="217.5"
       fy="182.08189"
       id="z-9"
       xlink:href="#a"
       gradientUnits="userSpaceOnUse"
       gradientTransform="matrix(1,0,0,0.42336,0,97.164234)" /><radialGradient
       cx="228.21875"
       cy="204.83229"
       r="14.09375"
       fx="228.21875"
       fy="204.83229"
       id="C-2"
       xlink:href="#a"
       gradientUnits="userSpaceOnUse"
       gradientTransform="matrix(1,0,0,0.14775,0,174.56924)" /><radialGradient
       cx="228.21875"
       cy="204.83229"
       r="14.09375"
       fx="228.21875"
       fy="204.83229"
       id="F-2"
       xlink:href="#a"
       gradientUnits="userSpaceOnUse"
       gradientTransform="matrix(1,0,0,0.14775,0,174.56924)" /><radialGradient
       cx="89.875"
       cy="187.86935"
       r="22.75"
       fx="89.875"
       fy="187.86935"
       id="G-8"
       xlink:href="#j"
       gradientUnits="userSpaceOnUse"
       gradientTransform="matrix(1,0,0,0.40708,0,115.76014)" /><radialGradient
       cx="90.28125"
       cy="230.83626"
       r="10.46875"
       fx="90.28125"
       fy="230.83626"
       id="J-9"
       xlink:href="#a"
       gradientUnits="userSpaceOnUse"
       gradientTransform="matrix(1.18507,-0.32836,0.12286,0.4434,-45.068314,152.92161)" /><radialGradient
       cx="68.39994"
       cy="21.225746"
       r="54.783398"
       fx="68.39994"
       fy="21.225746"
       id="K-7"
       xlink:href="#a"
       gradientUnits="userSpaceOnUse"
       gradientTransform="matrix(1.72215,0,0,1.69498,-49.39526,-14.078057)" /><radialGradient
       cx="181.22731"
       cy="214.55121"
       r="22.466398"
       fx="181.22731"
       fy="214.55121"
       id="N-3"
       xlink:href="#a"
       gradientUnits="userSpaceOnUse"
       gradientTransform="matrix(1.35152,0,0,1.71757,-63.705646,-153.95568)" /><filter
       id="q-6"
       color-interpolation-filters="sRGB"
       x="-0.017255854"
       y="-0.017528899"
       width="1.0345117"
       height="1.0350578"><feGaussianBlur
         stdDeviation=".80546496"
         id="feGaussianBlur30-1" /></filter><filter
       id="r-2"
       color-interpolation-filters="sRGB"
       x="-0.074775365"
       y="-0.075958553"
       width="1.1495507"
       height="1.1519171"><feGaussianBlur
         stdDeviation="3.4903482"
         id="feGaussianBlur31-9" /></filter><clipPath
       id="s-3"><use
         transform="translate(.00000101)"
         style="opacity:.25;fill:#fff;fill-opacity:1"
         width="400"
         height="300"
         xlink:href="#d-9"
         id="use31-1" /></clipPath><path
       d="M54.1 12.5 12.9 54.7C-2.7 70.3 23 69 32.3 74.9c4.3 2.8-13.8 6.4-10.1 10.1 3.6 3.7 21.7 7.1 25.3 10.7 3.6 3.7-7.3 7.6-3.7 11.3 3.5 3.7 11.9.2 13.4 8.6 1.1 6.2 15.4 3.1 21.8-2.2 4-3.4-6.9-3.4-3.3-7.1 9-9.1 17-4.1 20.3-12.5 1.8-4.5-13.6-7.7-9.5-10.6 9.8-6.9 45.8-10.4 29.2-27L73 12.5c-5.3-5-14-5-18.9 0zm-9.9 64.7c.9 0 30.8 4 19.3 7.1-4.4 1.2-24.6-7.1-19.3-7.1zm57.2 16.6c0 2.1 16.3 3.3 15.4-.5-1.3-6.4-13.6-5.9-15.4.5zm-69.5 11.1c3.7 3.2 9.3-.7 11.1-5.2-3.6-4.7-16.9.3-11.1 5.2zm67.5-6.7c-4.6 4.2.8 8.6 5.3 5.7 1.2-.8-.1-4.7-5.3-5.7z"
       id="d-9" /><linearGradient
       inkscape:collect="always"
       xlink:href="#a"
       id="linearGradient10"
       gradientUnits="userSpaceOnUse"
       x1="231.625"
       y1="195.1875"
       x2="231.75"
       y2="201.5" /><linearGradient
       inkscape:collect="always"
       xlink:href="#a"
       id="linearGradient11"
       gradientUnits="userSpaceOnUse"
       x1="231.37646"
       y1="195.62132"
       x2="231.37646"
       y2="200.07138" /><linearGradient
       inkscape:collect="always"
       xlink:href="#a"
       id="linearGradient12"
       gradientUnits="userSpaceOnUse"
       x1="231.625"
       y1="195.1875"
       x2="231.75"
       y2="201.5" /><linearGradient
       inkscape:collect="always"
       xlink:href="#a"
       id="linearGradient13"
       gradientUnits="userSpaceOnUse"
       x1="231.37646"
       y1="195.62132"
       x2="231.37646"
       y2="200.07138" /><inkscape:perspective
       sodipodi:type="inkscape:persp3d"
       inkscape:vp_x="-233.69495 : 134.92384 : 0"
       inkscape:vp_y="0 : 1000 : 0"
       inkscape:vp_z="233.69496 : 134.92385 : 0"
       inkscape:persp3d-origin="256 : 170.66667 : 1"
       id="perspective1" /><linearGradient
       id="a-3"
       x1="-.719999"
       x2="24.1436"
       y1="7.62784"
       y2="61.2524"
       gradientUnits="userSpaceOnUse"
       gradientTransform="matrix(0.91999962,0,0,0.92,2342.5592,84.317815)"><stop
         offset=".1"
         stop-color="#FC801D"
         id="stop1-6" /><stop
         offset=".59"
         stop-color="#FE2857"
         id="stop2-1" /></linearGradient><linearGradient
       id="b-0"
       x1="4.22031"
       x2="62.9211"
       y1="60.0205"
       y2="1.31055"
       gradientUnits="userSpaceOnUse"
       gradientTransform="matrix(0.91999962,0,0,0.92,2342.5592,84.317815)"><stop
         offset=".21"
         stop-color="#FE2857"
         id="stop3-6" /><stop
         offset=".7"
         stop-color="#007EFF"
         id="stop4-3" /></linearGradient><mask
       id="mask0"
       mask-type="alpha"
       maskUnits="userSpaceOnUse"
       x="0"
       y="0"
       width="100"
       height="100"><path
         fill-rule="evenodd"
         clip-rule="evenodd"
         d="m 70.9119,99.3171 c 1.575,0.6136 3.3709,0.5743 4.9606,-0.1907 L 96.4608,89.2197 C 98.6242,88.1787 100,85.9892 100,83.5872 V 16.4133 c 0,-2.402 -1.3757,-4.5915 -3.5391,-5.6325 L 75.8725,0.873756 C 73.7862,-0.130129 71.3446,0.11576 69.5135,1.44695 69.252,1.63711 69.0028,1.84943 68.769,2.08341 L 29.3551,38.0415 12.1872,25.0096 C 10.589,23.7965 8.35363,23.8959 6.86933,25.2461 l -5.5063,5.0088 c -1.815582,1.6515 -1.817663,4.5078 -0.0045,6.1621 L 16.2471,50.0001 1.35853,63.5832 c -1.813163,1.6542 -1.811082,4.5106 0.0045,6.1621 l 5.5063,5.0088 c 1.4843,1.3502 3.71967,1.4496 5.31787,0.2364 L 29.3551,61.9587 68.769,97.9167 c 0.6235,0.6239 1.3556,1.0937 2.1429,1.4004 z M 75.0152,27.2989 45.1091,50.0001 75.0152,72.7012 Z"
         fill="#ffffff"
         id="path1" /></mask></defs><g
     inkscape:label="shotcut"
     id="layer1-5"
     inkscape:groupmode="layer"><path
       id="path23"
       style="fill:#000000;stroke-width:12"
       d="m 0,70 v 10 h 15 c 5.54,0 10,4.46 10,10 v 15 c 0,5.54 -4.46,10 -10,10 H 0 v 270 h 15 c 5.54,0 10,4.46 10,10 v 15 c 0,5.54 -4.46,10 -10,10 H 0 v 10 h 150 c 11.08,0 20,-8.92 20,-20 V 90 c 0,-11.08 -8.92,-20 -20,-20 z m 45,10 h 15 c 5.54,0 10,4.46 10,10 v 15 c 0,5.54 -4.46,10 -10,10 H 45 c -5.54,0 -10,-4.46 -10,-10 V 90 c 0,-5.54 4.46,-10 10,-10 z m 45,0 h 15 c 5.54,0 10,4.46 10,10 v 15 c 0,5.54 -4.46,10 -10,10 H 90 c -5.54,0 -10,-4.46 -10,-10 V 90 c 0,-5.54 4.46,-10 10,-10 z m 45,0 h 15 c 5.54,0 10,4.46 10,10 v 15 c 0,5.54 -4.46,10 -10,10 h -15 c -5.54,0 -10,-4.46 -10,-10 V 90 c 0,-5.54 4.46,-10 10,-10 z M 45,385 h 15 c 5.54,0 10,4.46 10,10 v 15 c 0,5.54 -4.46,10 -10,10 H 45 c -5.54,0 -10,-4.46 -10,-10 v -15 c 0,-5.54 4.46,-10 10,-10 z m 45,0 h 15 c 5.54,0 10,4.46 10,10 v 15 c 0,5.54 -4.46,10 -10,10 H 90 c -5.54,0 -10,-4.46 -10,-10 v -15 c 0,-5.54 4.46,-10 10,-10 z m 45,0 h 15 c 5.54,0 10,4.46 10,10 v 15 c 0,5.54 -4.46,10 -10,10 h -15 c -5.54,0 -10,-4.46 -10,-10 v -15 c 0,-5.54 4.46,-10 10,-10 z" /><path
       id="rect3"
       style="fill:#000000;stroke-width:12"
       d="m 200,70 c -11.08,0 -20,8.92 -20,20 v 320 c 0,11.08 8.92,20 20,20 H 500 V 70 Z m 0,10 h 15 c 5.54,0 10,4.46 10,10 v 15 c 0,5.54 -4.46,10 -10,10 h -15 c -5.54,0 -10,-4.46 -10,-10 V 90 c 0,-5.54 4.46,-10 10,-10 z m 45,0 h 15 c 5.54,0 10,4.46 10,10 v 15 c 0,5.54 -4.46,10 -10,10 h -15 c -5.54,0 -10,-4.46 -10,-10 V 90 c 0,-5.54 4.46,-10 10,-10 z m 45,0 h 15 c 5.54,0 10,4.46 10,10 v 15 c 0,5.54 -4.46,10 -10,10 h -15 c -5.54,0 -10,-4.46 -10,-10 V 90 c 0,-5.54 4.46,-10 10,-10 z m 45,0 h 15 c 5.54,0 10,4.46 10,10 v 15 c 0,5.54 -4.46,10 -10,10 h -15 c -5.54,0 -10,-4.46 -10,-10 V 90 c 0,-5.54 4.46,-10 10,-10 z m 45,0 h 15 c 5.54,0 10,4.46 10,10 v 15 c 0,5.54 -4.46,10 -10,10 h -15 c -5.54,0 -10,-4.46 -10,-10 V 90 c 0,-5.54 4.46,-10 10,-10 z m 45,0 h 15 c 5.54,0 10,4.46 10,10 v 15 c 0,5.54 -4.46,10 -10,10 h -15 c -5.54,0 -10,-4.46 -10,-10 V 90 c 0,-5.54 4.46,-10 10,-10 z m 45,0 h 15 c 5.54,0 10,4.46 10,10 v 15 c 0,5.54 -4.46,10 -10,10 h -15 c -5.54,0 -10,-4.46 -10,-10 V 90 c 0,-5.54 4.46,-10 10,-10 z M 200,385 h 15 c 5.54,0 10,4.46 10,10 v 15 c 0,5.54 -4.46,10 -10,10 h -15 c -5.54,0 -10,-4.46 -10,-10 v -15 c 0,-5.54 4.46,-10 10,-10 z m 45,0 h 15 c 5.54,0 10,4.46 10,10 v 15 c 0,5.54 -4.46,10 -10,10 h -15 c -5.54,0 -10,-4.46 -10,-10 v -15 c 0,-5.54 4.46,-10 10,-10 z m 45,0 h 15 c 5.54,0 10,4.46 10,10 v 15 c 0,5.54 -4.46,10 -10,10 h -15 c -5.54,0 -10,-4.46 -10,-10 v -15 c 0,-5.54 4.46,-10 10,-10 z m 45,0 h 15 c 5.54,0 10,4.46 10,10 v 15 c 0,5.54 -4.46,10 -10,10 h -15 c -5.54,0 -10,-4.46 -10,-10 v -15 c 0,-5.54 4.46,-10 10,-10 z m 45,0 h 15 c 5.54,0 10,4.46 10,10 v 15 c 0,5.54 -4.46,10 -10,10 h -15 c -5.54,0 -10,-4.46 -10,-10 v -15 c 0,-5.54 4.46,-10 10,-10 z m 45,0 h 15 c 5.54,0 10,4.46 10,10 v 15 c 0,5.54 -4.46,10 -10,10 h -15 c -5.54,0 -10,-4.46 -10,-10 v -15 c 0,-5.54 4.46,-10 10,-10 z m 45,0 h 15 c 5.54,0 10,4.46 10,10 v 15 c 0,5.54 -4.46,10 -10,10 h -15 c -5.54,0 -10,-4.46 -10,-10 v -15 c 0,-5.54 4.46,-10 10,-10 z" /><rect
       style="opacity:1;fill:url(#linearGradient2);stroke:none;stroke-width:12"
       id="rect1"
       width="170"
       height="250"
       x="0"
       y="125" /><rect
       style="opacity:1;fill:url(#linearGradient3);stroke:none;stroke-width:12"
       id="rect2"
       width="320"
       height="250"
       x="-500"
       y="125"
       transform="scale(-1,1)" /><path
       id="path32"
       style="opacity:1;fill:#ffffff;fill-opacity:1;stroke:none;stroke-width:12"
       d="m 270,280 24.37822,182.22431 39.77398,-41.10945 25.35742,43.92034 c 4.155,7.19667 13.29371,9.64538 20.49038,5.49039 7.19667,-4.155 9.64538,-13.29371 5.49038,-20.49039 l -25.35742,-43.92034 55.48882,-13.89055 z" /></g><g
     mask="url(#mask0)"
     id="g6"
     transform="matrix(4.593921,0,0,4.593921,540.6079,20.303826)"
     inkscape:label="code"
     inkscape:groupmode="layer"><path
       d="M 96.4614,10.7962 75.8569,0.875542 C 73.4719,-0.272773 70.6217,0.211611 68.75,2.08333 L 1.29858,63.5832 c -1.814273,1.6541 -1.812187,4.5105 0.0045,6.162 l 5.50964,5.0088 c 1.48521,1.3502 3.72198,1.4496 5.32108,0.2365 L 93.3609,13.3699 C 96.086,11.3026 100,13.2462 100,16.6667 v -0.2392 c 0,-2.401 -1.3754,-4.5897 -3.5386,-5.6313 z"
       fill="#0065a9"
       id="path2" /><g
       filter="url(#filter0_d)"
       id="g3"><path
         d="m 96.4614,89.2038 -20.6045,9.9207 c -2.385,1.1485 -5.2352,0.6639 -7.1069,-1.2078 L 1.29858,36.4169 c -1.814273,-1.6542 -1.812187,-4.5106 0.0045,-6.1621 L 6.81272,25.246 C 8.29793,23.8958 10.5347,23.7964 12.1338,25.0095 L 93.3609,86.6301 C 96.086,88.6974 100,86.7538 100,83.3334 v 0.2392 c 0,2.4009 -1.3754,4.5896 -3.5386,5.6312 z"
         fill="#007acc"
         id="path3" /></g><g
       filter="url(#filter1_d)"
       id="g4"><path
         d="M 75.8578,99.1263 C 73.4721,100.274 70.6219,99.7885 68.75,97.9166 71.0564,100.223 75,98.5895 75,95.3278 V 4.67213 C 75,1.41039 71.0564,-0.223106 68.75,2.08329 70.6219,0.211402 73.4721,-0.273666 75.8578,0.873633 L 96.4587,10.7807 C 98.6234,11.8217 100,14.0112 100,16.4132 v 67.1739 c 0,2.402 -1.3766,4.5915 -3.5414,5.6325 z"
         fill="#1f9cf0"
         id="path4" /></g><g
       style="mix-blend-mode:overlay"
       opacity="0.25"
       id="g5"
       transform="matrix(1.0013235,0,0,1.0013235,-0.07146707,-0.06618095)"><path
         fill-rule="evenodd"
         clip-rule="evenodd"
         d="m 70.8511,99.3171 c 1.575,0.6135 3.371,0.5742 4.9606,-0.1907 L 96.4,89.2197 c 2.1634,-1.041 3.5392,-3.2305 3.5392,-5.6326 V 16.4133 c 0,-2.4021 -1.3757,-4.5916 -3.5391,-5.6326 L 75.8117,0.873695 C 73.7255,-0.13019 71.2838,0.115699 69.4527,1.44688 69.1912,1.63705 68.942,1.84937 68.7082,2.08335 L 29.2943,38.0414 12.1264,25.0096 C 10.5283,23.7964 8.29285,23.8959 6.80855,25.246 l -5.5063,5.0088 c -1.815584,1.6516 -1.817665,4.5079 -0.0045,6.1621 L 16.1863,50 1.29775,63.5832 c -1.813165,1.6542 -1.811084,4.5105 0.0045,6.162 l 5.5063,5.0088 c 1.4843,1.3502 3.71975,1.4496 5.31785,0.2365 L 29.2943,61.9586 68.7082,97.9167 c 0.6235,0.6238 1.3556,1.0937 2.1429,1.4004 z M 74.9544,27.2989 45.0483,50 74.9544,72.7012 Z"
         fill="url(#paint0_linear)"
         id="path5"
         style="fill:url(#paint0_linear)" /></g></g><g
     transform="matrix(3.8825796,0,0,3.8825796,1041.5211,-5.6447977)"
     style="display:inline;enable-background:new"
     id="g59"
     inkscape:label="inkscape"
     inkscape:groupmode="layer"><g
       style="opacity:0.783251"
       id="g32"><path
         d="m 54.1,12.988307 -41.2,42.2 c -15.6,15.6 10.1,14.3 19.4,20.2 4.3,2.8 -13.8,6.4 -10.1,10.1 3.6,3.7 21.7,7.1 25.3,10.7 3.6,3.699996 -7.3,7.600003 -3.7,11.300003 3.5,3.7 11.9,0.2 13.4,8.6 1.1,6.2 15.4,3.1 21.8,-2.2 4,-3.4 -6.9,-3.4 -3.3,-7.1 9,-9.100003 17,-4.1 20.3,-12.500003 1.8,-4.5 -13.6,-7.7 -9.5,-10.6 9.8,-6.9 45.8,-10.4 29.2,-27 l -42.7,-43.7 c -5.3,-5.0000003 -14,-5.0000003 -18.9,0 z m 47.3,81.3 c 0,2.1 16.3,3.3 15.4,-0.5 -1.3,-6.4 -13.6,-5.9 -15.4,0.5 z M 31.9,105.38831 c 3.7,3.2 9.3,-0.7 11.1,-5.2 -3.6,-4.700003 -16.9,0.3 -11.1,5.2 z m 67.5,-6.700003 c -4.6,4.200003 0.8,8.600003 5.3,5.700003 1.2,-0.8 -0.1,-4.700007 -5.3,-5.700003 z"
         style="fill:#000000;fill-opacity:1;filter:url(#q-6)"
         transform="translate(3.7e-7,0.4883067)"
         id="path31" /><path
         d="m 54.1,13.964921 -41.2,42.2 c -15.6,15.6 10.1,14.3 19.4,20.2 4.3,2.8 -13.8,6.4 -10.1,10.1 3.6,3.7 21.7,7.1 25.3,10.7 3.6,3.699999 -7.3,7.600009 -3.7,11.300009 3.5,3.7 11.9,0.2 13.4,8.6 1.1,6.2 15.4,3.1 21.8,-2.2 4,-3.4 -6.9,-3.4 -3.3,-7.1 9,-9.100009 17,-4.1 20.3,-12.500009 1.8,-4.5 -13.6,-7.7 -9.5,-10.6 9.8,-6.9 45.8,-10.4 29.2,-27 l -42.7,-43.7 c -5.3,-5.0000009 -14,-5.0000009 -18.9,0 z m 47.3,81.3 c 0,2.1 16.3,3.3 15.4,-0.5 -1.3,-6.4 -13.6,-5.9 -15.4,0.5 z M 31.9,106.36493 c 3.7,3.2 9.3,-0.7 11.1,-5.2 -3.6,-4.700009 -16.9,0.3 -11.1,5.2 z m 67.5,-6.700009 c -4.6,4.200009 0.8,8.600009 5.3,5.700009 1.2,-0.8 -0.1,-4.70001 -5.3,-5.700009 z"
         style="opacity:0.576355;fill:#000000;fill-opacity:1;filter:url(#r-2)"
         transform="translate(3.7e-7,0.4883067)"
         id="path32-4" /></g><path
       d="M 54.1,12.5 12.9,54.7 C -2.7,70.3 23,69 32.3,74.9 36.6,77.7 18.5,81.3 22.2,85 c 3.6,3.7 21.7,7.1 25.3,10.7 3.6,3.7 -7.3,7.6 -3.7,11.3 3.5,3.7 11.9,0.2 13.4,8.6 1.1,6.2 15.4,3.1 21.8,-2.2 4,-3.4 -6.9,-3.4 -3.3,-7.1 9,-9.1 17,-4.1 20.3,-12.5 1.8,-4.5 -13.6,-7.7 -9.5,-10.6 9.8,-6.9 45.8,-10.4 29.2,-27 L 73,12.5 c -5.3,-5 -14,-5 -18.9,0 z m 47.3,81.3 c 0,2.1 16.3,3.3 15.4,-0.5 -1.3,-6.4 -13.6,-5.9 -15.4,0.5 z m -69.5,11.1 c 3.7,3.2 9.3,-0.7 11.1,-5.2 -3.6,-4.7 -16.9,0.3 -11.1,5.2 z m 67.5,-6.7 c -4.6,4.2 0.8,8.6 5.3,5.7 1.2,-0.8 -0.1,-4.7 -5.3,-5.7 z"
       style="fill:#000000;fill-opacity:1"
       id="path33" /><path
       d="M 54.1,12.5 12.9,54.7 C -2.7,70.3 23,69 32.3,74.9 36.6,77.7 18.5,81.3 22.2,85 c 3.6,3.7 21.7,7.1 25.3,10.7 3.6,3.7 -7.3,7.6 -3.7,11.3 3.5,3.7 11.9,0.2 13.4,8.6 1.1,6.2 15.4,3.1 21.8,-2.2 4,-3.4 -6.9,-3.4 -3.3,-7.1 9,-9.1 17,-4.1 20.3,-12.5 1.8,-4.5 -13.6,-7.7 -9.5,-10.6 9.8,-6.9 45.8,-10.4 29.2,-27 L 73,12.5 c -5.3,-5 -14,-5 -18.9,0 z m 47.3,81.3 c 0,2.1 16.3,3.3 15.4,-0.5 -1.3,-6.4 -13.6,-5.9 -15.4,0.5 z m -69.5,11.1 c 3.7,3.2 9.3,-0.7 11.1,-5.2 -3.6,-4.7 -16.9,0.3 -11.1,5.2 z m 67.5,-6.7 c -4.6,4.2 0.8,8.6 5.3,5.7 1.2,-0.8 -0.1,-4.7 -5.3,-5.7 z"
       style="fill:none"
       id="path34" /><use
       transform="matrix(0.99054,0,0,0.99054,0.6051535,0.604136)"
       clip-path="url(#s-3)"
       style="opacity:0.669951;fill:url(#t-9);filter:url(#filter8490-0)"
       width="400"
       height="300"
       xlink:href="#d-9"
       id="use34" /><path
       d="M 16.565217,57.039374 C 5.3632748,68.140398 25.042362,65.011927 40.180121,70.966113 L 71.464824,15.965587 c -4.743164,-4.844083 -10.798268,-4.44041 -15.137759,0 z"
       style="opacity:0.505263;fill:url(#u);stroke:none"
       id="path35" /><path
       d="m 70.5,15.5 16.3,16.6 c 1.5,1.5 1.5,4.6 0.6,5.5 L 79.3,31 77.7,40.7 71,37.1 60.1,44 56.5,29.5 50.7,42.1 36.2,42 c -2.8,0 -2.4,-2.9 0.5,-5.8 5.7,-6.3 16.8,-17 20.3,-20.7 3.6,-3.7 9.9,-3.6 13.5,0 z"
       style="fill:url(#v-3)"
       id="path36" /><path
       d="m 113,203.5 c 0,0 3.34046,5.10071 3,7.5 -0.66817,4.70868 -10.80945,7.05842 -8.5625,11.25 2.21991,4.14114 10.22139,1.79405 16.9375,6.125 6.6875,4.3125 4.88949,13.10149 9.75,15.3125 9.47925,4.31205 34.375,-7.4375 33.125,-7.1875 -1.25,0.25 -24.57014,5.09545 -29.82014,0.84545 -5.98592,-4.84575 -7.70217,-8.23028 -12.11736,-11.09545 -4.13751,-2.68498 -9.94967,-3.78036 -11.30246,-5.97865 -1.35279,-2.19829 2.7092,-5.03469 2.98996,-9.27135 0.16862,-2.54442 -4,-7.5 -4,-7.5 z"
       transform="matrix(0.52965,0,0,0.52965,-11.722258,-13.864159)"
       style="opacity:0.216749;fill:url(#w-3);fill-opacity:1;fill-rule:evenodd;stroke:none"
       id="path37" /><path
       d="m 113,203.5 c 0,0 3.34046,5.10071 3,7.5 -0.66817,4.70868 -10.80945,7.05842 -8.5625,11.25 2.21991,4.14114 10.22139,1.79405 16.9375,6.125 6.6875,4.3125 4.88949,13.10149 9.75,15.3125 9.47925,4.31205 34.375,-7.4375 33.125,-7.1875 -41.33959,0.15736 -33.62485,-10.4946 -49.5625,-17.5 -2.30305,-1.0123 -0.96826,-3.76334 -0.6875,-8 0.16862,-2.54442 -4,-7.5 -4,-7.5 z"
       transform="matrix(0.52965,0,0,0.52965,-11.722258,-13.864159)"
       style="opacity:0.275862;fill:url(#x-7);fill-opacity:1;fill-rule:evenodd;stroke:none;filter:url(#filter8732-3)"
       id="path38" /><path
       d="M 183.25,181.75 C 220.35371,168.09541 232.27363,166.21942 244.5,154 230.33931,165.95366 200.40153,172.3658 176,183 Z"
       transform="matrix(0.52965,0,0,0.52965,-11.722258,-13.864159)"
       style="opacity:0.453202;fill:url(#y-5);fill-opacity:1;fill-rule:evenodd;stroke:none"
       id="path39" /><path
       d="m 183.25,181.75 c 61.10371,-21.65459 50.77363,-21.53058 61.25,-27.75 -19.42769,7.43666 -55.73446,8.22981 -68.5,29 z"
       transform="matrix(0.52965,0,0,0.52965,-11.722258,-14.791044)"
       style="opacity:0.512315;fill:url(#z-9);fill-opacity:1;fill-rule:evenodd;stroke:none;filter:url(#filter8764-9)"
       id="path40" /><path
       d="m 237.875,199.0625 a 7.9375,2.4375 0 1 1 -15.875,0 7.9375,2.4375 0 1 1 15.875,0 z"
       transform="matrix(0.52965,0,0,0.52965,-12.384318,-14.791044)"
       style="display:inline;overflow:visible;visibility:visible;opacity:0.285714;fill:url(#linearGradient10);fill-opacity:1;fill-rule:nonzero;stroke:none;stroke-width:1;marker:none;enable-background:accumulate"
       id="path41" /><path
       d="m 237.875,199.0625 a 7.9375,2.4375 0 1 1 -15.875,0 7.9375,2.4375 0 1 1 15.875,0 z"
       transform="matrix(0.71315,0,0,1.14078,-54.577902,-134.95502)"
       style="display:inline;overflow:visible;visibility:visible;opacity:0.620689;fill:url(#linearGradient11);fill-opacity:1;fill-rule:nonzero;stroke:none;stroke-width:1;marker:none;filter:url(#filter8906-3);enable-background:accumulate"
       id="path42" /><path
       d="m 214.125,203.75 c 3.76948,3.48424 24.75576,5.27219 28.1875,-1 -6.73663,4.7839 -21.71677,3.10264 -28.1875,1 z"
       transform="matrix(0.52965,0,0,0.52965,-11.722258,-14.238677)"
       style="fill:url(#C-2);fill-opacity:1;fill-rule:evenodd;stroke:none;filter:url(#filter8980-1)"
       id="path43" /><path
       d="m 236.44594,199.0625 a 6.5084434,3.0820823 0 1 1 -13.01688,0 6.5084434,3.0820823 0 1 1 13.01688,0 z"
       transform="matrix(0.20425,-0.10356,0.23952,0.4724,5.7547955,30.286555)"
       style="display:inline;overflow:visible;visibility:visible;opacity:0.285714;fill:url(#linearGradient12);fill-opacity:1;fill-rule:nonzero;stroke:none;stroke-width:1;marker:none;enable-background:accumulate"
       id="path44" /><path
       d="m 236.99305,199.0625 a 7.0555515,2.1400476 0 1 1 -14.1111,0 7.0555515,2.1400476 0 1 1 14.1111,0 z"
       transform="matrix(0.27502,-0.13944,0.51588,1.01747,-65.353496,-69.300635)"
       style="display:inline;overflow:visible;visibility:visible;opacity:0.620689;fill:url(#linearGradient13);fill-opacity:1;fill-rule:nonzero;stroke:none;stroke-width:1;marker:none;filter:url(#filter8906-3);enable-background:accumulate"
       id="path45" /><path
       d="m 217.05754,201.94027 c 3.76948,3.48424 26.97122,8.91123 25.25496,0.80973 -3.31737,5.32326 -18.78423,1.29291 -25.25496,-0.80973 z"
       transform="matrix(0.20425,-0.10356,0.23952,0.4724,6.2599008,30.649764)"
       style="fill:url(#F-2);fill-opacity:1;fill-rule:evenodd;stroke:none;filter:url(#filter8980-1)"
       id="path46" /><path
       d="m 68.25,186 c 0,-0.62057 38.84622,11.83854 45.5,18.5 -5.47122,-5.33854 -33.159709,-17.61609 -37.375,-17.75 -4.215291,-0.13391 -7.625,-0.5 -8.125,-0.75 z"
       transform="matrix(0.52965,0,0,0.52965,-11.722258,-13.864159)"
       style="fill:url(#G-8);fill-opacity:1;fill-rule:evenodd;stroke:none"
       id="path47" /><path
       d="m 237.875,199.0625 a 7.9375,2.4375 0 1 1 -15.875,0 7.9375,2.4375 0 1 1 15.875,0 z"
       transform="matrix(0.46557,-0.10222,0.12385,0.3686,-95.518389,49.727432)"
       style="display:inline;overflow:visible;visibility:visible;opacity:0.285714;fill:url(#A-6);fill-opacity:1;fill-rule:nonzero;stroke:none;stroke-width:1;marker:none;enable-background:accumulate"
       id="path48" /><path
       d="m 237.875,199.0625 a 7.9375,2.4375 0 1 1 -15.875,0 7.9375,2.4375 0 1 1 15.875,0 z"
       transform="matrix(0.62687,-0.13763,0.26675,0.7939,-160.70561,-25.755035)"
       style="display:inline;overflow:visible;visibility:visible;opacity:0.620689;fill:url(#B-2);fill-opacity:1;fill-rule:nonzero;stroke:none;stroke-width:1;marker:none;filter:url(#filter8906-3);enable-background:accumulate"
       id="path49" /><path
       d="m 80.5,220.0625 c 0,0 2.10339,5.65078 7.875,5.9375 5.83887,0.29006 12.50324,-7.00698 13.0625,-9.625 -1,2.25 -6.590334,9.03328 -13.8125,8.9375 -4.099862,-0.0544 -7.125,-5.25 -7.125,-5.25 z"
       transform="matrix(0.52965,0,0,0.52965,-11.622949,-14.42691)"
       style="opacity:0.615764;fill:url(#J-9);fill-opacity:1;fill-rule:evenodd;stroke:none;filter:url(#filter9068-2)"
       id="path50" /><path
       d="m 63.40625,10.21875 c -3.098181,0 -6.134601,1.122042 -8.28125,3.3125 l -41.1875,42.1875 c -3.76562,3.76562 -4.6702413,6.23069 -4.4375,7.625 0.1163706,0.697155 0.4585994,1.303027 1.1875,1.9375 0.728901,0.634473 1.831495,1.256389 3.15625,1.8125 2.649511,1.112222 6.217961,2.008085 9.71875,2.96875 3.500789,0.960665 6.929812,1.974626 9.53125,3.625 0.396623,0.258266 0.769088,0.576468 1.03125,1.03125 0.262162,0.454782 0.354216,1.056088 0.25,1.5625 -0.208431,1.012824 -0.83202,1.546985 -1.46875,2.03125 -1.27346,0.96853 -3.023257,1.773229 -4.78125,2.625 -1.757993,0.851771 -3.524925,1.723242 -4.40625,2.4375 -0.440663,0.357129 -0.600112,0.678133 -0.59375,0.65625 0.0064,-0.02188 -0.116851,-0.273101 0.09375,-0.0625 0.551764,0.56709 2.274075,1.538165 4.46875,2.40625 2.194675,0.868085 4.88065,1.745624 7.59375,2.625 2.7131,0.879376 5.4575,1.749959 7.78125,2.65625 2.32375,0.906291 4.217694,1.748944 5.46875,3 0.622681,0.639978 1.062632,1.435956 1.15625,2.25 0.09362,0.814044 -0.126809,1.578032 -0.4375,2.21875 -0.621382,1.28144 -1.620313,2.26719 -2.53125,3.21875 -0.910938,0.95156 -1.736226,1.86034 -2.03125,2.46875 -0.147512,0.3042 -0.170347,0.50242 -0.15625,0.625 0.0141,0.12258 0.03518,0.24623 0.3125,0.53125 A 1.4566768,1.4566768 0 0 1 44.875,106 c 1.193594,1.2618 3.787002,1.43924 6.71875,2.125 1.465874,0.34288 2.998909,0.86196 4.3125,2 1.313591,1.13804 2.299435,2.87059 2.71875,5.21875 0.176459,0.99459 0.702722,1.4788 1.96875,1.875 1.266028,0.3962 3.194353,0.46554 5.3125,0.15625 4.236295,-0.61859 9.260035,-2.69532 12.15625,-5.09375 0.17999,-0.15299 0.129956,-0.11255 0.1875,-0.1875 -0.194805,-0.13939 -0.651644,-0.43652 -1.40625,-0.8125 -0.891527,-0.4442 -1.944708,-0.85956 -2.75,-1.875 -0.402646,-0.50772 -0.679877,-1.30934 -0.5625,-2.09375 0.117377,-0.78441 0.546832,-1.43702 1.125,-2.03125 4.745751,-4.79848 9.421937,-5.944136 12.9375,-6.875 1.757782,-0.465432 3.229292,-0.891233 4.34375,-1.59375 1.114458,-0.702517 1.98508,-1.663728 2.71875,-3.53125 0.08087,-0.202174 0.07855,-0.260846 -0.03125,-0.5 C 94.515197,92.542096 94.220541,92.159521 93.75,91.75 92.808918,90.930959 91.239577,90.050804 89.6875,89.1875 88.135423,88.324196 86.627034,87.519262 85.53125,86.5 84.983358,85.990369 84.409233,85.348367 84.34375,84.375 84.27827,83.401633 84.916318,82.523367 85.65625,82 88.401968,80.06679 92.552528,78.595094 97.0625,77.03125 101.57247,75.467406 106.42363,73.849125 110.375,72 c 3.95137,-1.849125 6.85729,-3.978669 7.78125,-6.125 0.46198,-1.073165 0.54663,-2.158606 0.0625,-3.5625 -0.48413,-1.403894 -1.58958,-3.120831 -3.5625,-5.09375 L 72,13.5625 c -0.01071,-0.0101 -0.02051,-0.02119 -0.03125,-0.03125 -2.357722,-2.207738 -5.478371,-3.3125 -8.5625,-3.3125 z m 45.9375,80 c -2.63522,0.09513 -5.05952,1.301393 -6.09375,3.1875 0.29381,0.110524 0.55838,0.234969 1.03125,0.34375 1.37562,0.316455 3.29543,0.520736 5.1875,0.5625 1.89207,0.04176 3.78415,-0.117472 4.9375,-0.4375 0.50487,-0.14009 0.77236,-0.281778 0.90625,-0.375 -0.2558,-1.091098 -0.86487,-1.862126 -1.90625,-2.4375 -1.07862,-0.595951 -2.55669,-0.898111 -4.0625,-0.84375 z m -70.5,9.0625 c -2.089872,-0.145348 -4.716548,0.686551 -6,1.71875 -0.641726,0.5161 -0.913269,0.99441 -0.9375,1.3125 -0.02423,0.31809 0.07726,0.74199 0.9375,1.46875 a 1.4566768,1.4566768 0 0 1 0,0.0312 c 1.352809,1.17 2.882256,1.04802 4.625,0.0937 1.460951,-0.79997 2.757201,-2.30075 3.625,-3.875 -0.585032,-0.377341 -1.284532,-0.682853 -2.25,-0.75 z m 61,0.625 c -0.447303,0.5686 -0.690902,1.09797 -0.71875,1.46875 -0.03844,0.51176 0.106611,0.90723 0.5,1.28125 0.73729,0.70099 2.33912,1.00278 3.96875,0.125 -0.0322,-0.1891 -0.0933,-0.47591 -0.34375,-0.84375 -0.4999,-0.73414 -1.6686,-1.5251 -3.40625,-2.03125 z"
       style="fill:none;stroke:url(#K-7);stroke-width:0.488307;stroke-miterlimit:4;stroke-dasharray:none;stroke-opacity:1;filter:url(#filter9298-4)"
       id="path51" /><path
       d="m 95.5,172 c -5.090606,1.50191 -21.592018,7.73713 -19.25,12.5 2.243595,4.56272 40.61138,6.40132 46.5,20 2.5679,5.93009 -5.89238,10.40326 -3.75,16.5 1.64973,4.69477 14.41196,16.49084 22.48603,22.06781 6.33298,4.37435 14.65096,-3.52244 11.26397,-10.06781 -5.39589,-10.42759 18.44266,-23.19912 29.25,-29 6.30524,-3.38436 -13,-20 -13,-20 z"
       transform="matrix(0.4883,0,0,0.4883,-5.8104012,-7.7042521)"
       style="opacity:0.325123;fill:url(#L-8);fill-opacity:1;fill-rule:evenodd;stroke:none;filter:url(#filter5983-8)"
       id="path52" /><path
       d="m 41.742167,78.533037 c 2.231933,1.639226 6.636757,0.650538 9.282124,1.841759 6.349518,2.859218 14.154941,6.045427 12.718568,0.404555 l -1.615771,1.342042 -0.03153,-2.557545 -3.751977,0.916294 c 0,0 -2.906173,-2.332759 -4.238526,-3.101995 -0.27829,-0.160669 -1.707695,1.292815 -1.707695,1.292815 l -0.25697,-1.543804 c -1.857372,-0.197638 -3.696159,-0.284805 -5.31515,-0.271821 -3.880942,0.03112 -6.499059,0.637741 -5.083074,1.6777 z"
       style="fill:url(#M);fill-opacity:1;fill-rule:evenodd;stroke:none"
       id="path53" /><path
       d="m 182.75,187.25 c -1.75981,6.4783 21.62776,15.27989 19.875,19.75 -3.85895,9.84158 -24.97596,3.13755 -41.125,23.75 -2.31318,2.95251 3.25,13.5 2.5,12.25 -0.75,-1.25 -6.4649,-9.96285 -5,-14.25 4.59417,-13.44525 49.0128,-18.45749 40.875,-24.875 -4.67988,-3.69058 -21.50546,-13.88721 -17.125,-16.625 z"
       transform="matrix(0.4883,0,0,0.4883,-5.8104012,-7.7042521)"
       style="opacity:0.477833;fill:url(#N-3);fill-opacity:1;fill-rule:evenodd;stroke:none;filter:url(#filter5845-5)"
       id="path54" /><path
       d="m 236.5,201.1875 a 2.5625,1.0625 0 1 1 -5.125,0 2.5625,1.0625 0 1 1 5.125,0 z"
       transform="matrix(0.4883,0,0,0.4883,-6.3597463,-8.0094438)"
       style="display:inline;overflow:visible;visibility:visible;opacity:0.586207;fill:#ffffff;fill-opacity:1;fill-rule:nonzero;stroke:none;stroke-width:1;marker:none;enable-background:accumulate"
       id="path55" /><path
       d="m 236.5,201.1875 a 2.5625,1.0625 0 1 1 -5.125,0 2.5625,1.0625 0 1 1 5.125,0 z"
       transform="matrix(0.30966,0,0,0.4883,27.528443,1.5735759)"
       style="display:inline;overflow:visible;visibility:visible;opacity:0.586207;fill:#ffffff;fill-opacity:1;fill-rule:nonzero;stroke:none;stroke-width:1;marker:none;enable-background:accumulate"
       id="path56" /><path
       d="m 236.5,201.1875 a 2.5625,1.0625 0 1 1 -5.125,0 2.5625,1.0625 0 1 1 5.125,0 z"
       transform="matrix(0.54786,0,0,0.4883,-92.102233,1.115795)"
       style="display:inline;overflow:visible;visibility:visible;opacity:0.586207;fill:#ffffff;fill-opacity:1;fill-rule:nonzero;stroke:none;stroke-width:1;marker:none;enable-background:accumulate"
       id="path57" /><path
       d="m 36.672282,76.528654 c -7.152988,4.424107 -18.274031,6.034229 -6.103834,8.972635 -1.449712,-3.2281 3.138581,-2.872021 6.103834,-8.972635 z"
       style="display:inline;overflow:visible;visibility:visible;opacity:0.251232;fill:url(#O);fill-opacity:1;fill-rule:nonzero;stroke:none;stroke-width:2.04789;marker:none;enable-background:accumulate"
       id="path58" /><path
       d="m 8.8342799,171.64721 c 0,0 22.5917801,-2.12795 27.8180201,-8.64645 3.05755,-3.81358 -12.15146,-8.2638 -8.86827,-12 12.35008,-14.0541 22.73076,-13.46729 37.05025,-19.35355 14.31949,-5.88626 9.03544,-8.76906 4.40381,-11.35355 -7.9325,-4.4264 -25.58722,-9.14237 -19.74696,-19.64645 5.87688,-10.569936 57.34315,-25.249996 57.34315,-25.249996 15.59619,-5.32843 13.63909,-14.96447 6,-23 l -46,-45.7499997 c 0,0 2.28296,43.3886497 -7,61.9999997 -11.4715,22.99914 -72.54408,48.661766 -47,51.499996 9,1 13.32065,4.0705 17,11 7.57631,14.26883 -21.0000001,40.5 -21.0000001,40.5 z"
       transform="matrix(0.4883,0,0,0.4883,57.750397,32.997477)"
       style="color:#000000;display:inline;overflow:visible;visibility:visible;opacity:0.363158;fill:url(#P-2);fill-opacity:1;fill-rule:nonzero;stroke:none;stroke-width:2;marker:none;filter:url(#filter10997-7-2);enable-background:accumulate"
       id="path59" /></g><g
     inkscape:label="unity"
     id="layer1-50"
     transform="matrix(0.9765625,0,0,0.9765625,1560,0)"
     inkscape:groupmode="layer"><style
       id="style2">.st0{fill:#4c4c4c}</style><path
       style="fill:#dedede;fill-opacity:1;stroke-linecap:square"
       d="M 34.2975,127.99999 256,256 477.70251,128.00001 256.00001,0 Z"
       id="path17" /><path
       style="fill:#c3c3c3;fill-opacity:1;stroke-linecap:square"
       d="M 256,512 V 256 L 34.2975,127.99999 l -7e-6,256 z"
       id="path18" /><path
       style="fill:#8d8d8d;fill-opacity:1;stroke-linecap:square"
       d="M 256,512 V 256 l 221.70251,-127.99999 -1e-5,256 z"
       id="path19" /><g
       id="g849"
       transform="matrix(0.64796065,0,0,0.64796065,98.106141,80.976148)"
       style="stroke-width:1.5433"><path
         class="st0"
         d="M 488.50575,386.2069 V 128.73563 L 265.51724,0 v 98.850575 l 87.35632,50.574715 c 3.44828,2.29885 3.44828,6.89655 0,8.04597 l -103.44827,59.77012 c -3.44828,2.29885 -6.89655,1.14942 -9.1954,0 L 136.78161,157.47126 c -3.44828,-1.14942 -3.44828,-6.89655 0,-8.04597 L 224.13793,98.850575 V 0 L 0,128.73563 v 257.47127 -1.14943 1.14943 L 85.057471,336.78161 V 235.63218 c 0,-3.44827 4.597701,-5.74712 6.896552,-4.5977 L 195.4023,290.8046 c 3.44827,2.29885 4.5977,4.5977 4.5977,8.04597 V 418.3908 c 0,3.44828 -4.5977,5.74713 -6.89655,4.59771 L 105.74713,372.41379 20.689655,421.83908 243.67816,551.72414 466.66667,422.98851 381.6092,373.56322 294.25287,424.13793 c -3.44827,2.29885 -6.89655,0 -6.89655,-4.5977 V 300 c 0,-3.44828 2.29885,-6.89655 4.5977,-8.04598 L 395.4023,232.18391 c 3.44827,-2.29885 6.89655,0 6.89655,4.5977 v 101.14942 z"
         id="path6"
         style="stroke-width:17.7392" /><path
         d="M 243.67816,551.72414 466.66667,422.98851 381.6092,373.56322 294.25287,424.13793 c -3.44827,2.29885 -6.89655,0 -6.89655,-4.5977 V 300 c 0,-3.44828 2.29885,-6.89655 4.5977,-8.04598 L 395.4023,232.18391 c 3.44827,-2.29885 6.89655,0 6.89655,4.5977 v 101.14942 l 85.05747,49.42529 V 128.73563 L 243.67816,270.11494 Z"
         id="path8"
         style="stroke-width:17.7392" /><path
         d="m 265.51724,0 v 98.850575 l 87.35632,50.574715 c 3.44828,2.29885 3.44828,6.89655 0,8.04597 l -103.44827,59.77012 c -3.44828,2.29885 -6.89655,1.14942 -9.1954,0 L 136.78161,157.47126 c -3.44828,-1.14942 -3.44828,-6.89655 0,-8.04597 L 224.13793,98.850575 V 0 L 0,128.73563 243.67816,270.11494 487.35632,128.73563 Z"
         fill="#808080"
         id="path10"
         style="stroke-width:17.7392" /></g></g><g
     id="g14"
     transform="matrix(7.8124634,0,0,7.8124634,-16201.158,-638.72982)"
     inkscape:label="intellij"
     inkscape:groupmode="layer"><path
       fill="#ff8100"
       d="m 2357.2332,89.679685 h -10.9296 c -2.07,0 -3.7444,1.683343 -3.7444,3.743811 v 10.587564 c 0,1.09462 0.4784,2.13404 1.3064,2.84234 l 35.1072,30.08842 c 0.6808,0.57951 1.5456,0.90151 2.438,0.90151 h 10.9296 c 2.07,0 3.7444,-1.67413 3.7444,-3.74385 v -10.58754 c 0,-1.09462 -0.4784,-2.13404 -1.3064,-2.84234 l -35.1072,-30.088453 c -0.6808,-0.579508 -1.5456,-0.901462 -2.438,-0.901462 z"
       id="path5-0"
       sodipodi:nodetypes="ssssccssssccs"
       style="stroke-width:0.92" /><path
       fill="url(#a)"
       d="m 2355.9176,89.679685 h -9.614 c -2.07,0 -3.7444,1.674143 -3.7444,3.743811 v 12.040894 c 0,0.1748 0.01,0.3588 0.037,0.53351 l 4.8576,33.97946 c 0.2668,1.84892 1.84,3.21954 3.7076,3.21954 h 14.4164 c 2.07,0 3.7444,-1.67412 3.7444,-3.74385 v -17.05413 c 0,-0.40471 -0.074,-0.80022 -0.1932,-1.18662 l -9.66,-28.97541 c -0.506,-1.526961 -1.9412,-2.557205 -3.5512,-2.557205 z"
       id="path6-6"
       style="fill:url(#a-3);stroke-width:0.92"
       sodipodi:nodetypes="ssssccssssccs" /><path
       fill="url(#b)"
       d="m 2366.4427,84.317812 c -1.4996,-4.42e-4 -2.852,0.901457 -3.4408,2.281241 l -14.7844,34.485367 c -0.2024,0.46911 -0.3036,0.96582 -0.3036,1.47173 v 16.88862 c 0,2.06963 1.6748,3.75333 3.7448,3.75333 h 16.532 c 0.736,0 1.4628,-0.23028 2.0792,-0.64428 l 29.5044,-19.68487 c 1.0396,-0.69911 1.6652,-1.86733 1.6652,-3.11834 V 88.061626 c 0,-2.069678 -1.6744,-3.743811 -3.7444,-3.743811 z"
       id="path7"
       style="fill:url(#b-0);stroke-width:0.92"
       sodipodi:nodetypes="sccssssccsscs" /><path
       fill="#000000"
       d="m 2390.3992,95.357815 h -36.8 v 36.800005 h 36.8 z"
       id="path8-1"
       sodipodi:nodetypes="ccccc"
       style="stroke-width:0.92" /><path
       fill="#ffffff"
       d="m 2366.332,111.3638 h -2.7416 v -8.98841 h 2.7416 v -2.401199 h -8.1328 v 2.401199 h 2.7416 v 8.98841 h -2.7416 v 2.4012 h 8.1328 z m 5.4096,-11.398809 v 9.264409 c 0,0.4048 -0.083,0.7544 -0.2576,1.0672 -0.1748,0.3128 -0.414,0.552 -0.7268,0.7268 -0.3128,0.1748 -0.6716,0.2576 -1.0672,0.2576 h -1.978 v 2.484 h 2.3184 c 0.8372,0 1.5824,-0.184 2.254,-0.5612 0.6716,-0.3772 1.196,-0.8924 1.5732,-1.5548 0.3772,-0.6624 0.5704,-1.4076 0.5704,-2.2356 V 99.964991 Z M 2358.1992,127.565 h 14.72 v -2.76 h -14.72 z"
       id="path9"
       sodipodi:nodetypes="ccccccccccccccssssccssssccccccc"
       style="stroke-width:0.92" /></g></svg>
