<?xml version="1.0" encoding="UTF-8" standalone="no"?>
<!-- Created with Inkscape (http://www.inkscape.org/) -->

<svg
   width="500"
   height="500"
   viewBox="0 0 500 500"
   version="1.1"
   id="svg1"
   xml:space="preserve"
   xmlns="http://www.w3.org/2000/svg"
   xmlns:svg="http://www.w3.org/2000/svg"><defs
     id="defs1"><linearGradient
       id="a-3"
       x1="-0.71999902"
       x2="24.1436"
       y1="7.62784"
       y2="61.252399"
       gradientUnits="userSpaceOnUse"
       gradientTransform="matrix(0.91999962,0,0,0.92,2342.5592,84.317815)"><stop
         offset=".1"
         stop-color="#FC801D"
         id="stop1-6" /><stop
         offset=".59"
         stop-color="#FE2857"
         id="stop2-1" /></linearGradient><linearGradient
       id="b-0"
       x1="4.2203102"
       x2="62.921101"
       y1="60.0205"
       y2="1.31055"
       gradientUnits="userSpaceOnUse"
       gradientTransform="matrix(0.91999962,0,0,0.92,2342.5592,84.317815)"><stop
         offset=".21"
         stop-color="#FE2857"
         id="stop3-6" /><stop
         offset=".7"
         stop-color="#007EFF"
         id="stop4-3" /></linearGradient></defs><g
     id="g14"
     transform="matrix(7.8124634,0,0,7.8124634,-18281.158,-638.72982)"><path
       fill="#ff8100"
       d="m 2357.2332,89.679685 h -10.9296 c -2.07,0 -3.7444,1.683343 -3.7444,3.743811 v 10.587564 c 0,1.09462 0.4784,2.13404 1.3064,2.84234 l 35.1072,30.08842 c 0.6808,0.57951 1.5456,0.90151 2.438,0.90151 h 10.9296 c 2.07,0 3.7444,-1.67413 3.7444,-3.74385 v -10.58754 c 0,-1.09462 -0.4784,-2.13404 -1.3064,-2.84234 l -35.1072,-30.088453 c -0.6808,-0.579508 -1.5456,-0.901462 -2.438,-0.901462 z"
       id="path5-0"
       style="stroke-width:0.92" /><path
       fill="url(#a)"
       d="m 2355.9176,89.679685 h -9.614 c -2.07,0 -3.7444,1.674143 -3.7444,3.743811 v 12.040894 c 0,0.1748 0.01,0.3588 0.037,0.53351 l 4.8576,33.97946 c 0.2668,1.84892 1.84,3.21954 3.7076,3.21954 h 14.4164 c 2.07,0 3.7444,-1.67412 3.7444,-3.74385 v -17.05413 c 0,-0.40471 -0.074,-0.80022 -0.1932,-1.18662 l -9.66,-28.97541 c -0.506,-1.526961 -1.9412,-2.557205 -3.5512,-2.557205 z"
       id="path6-6"
       style="fill:url(#a-3);stroke-width:0.92" /><path
       fill="url(#b)"
       d="m 2366.4427,84.317812 c -1.4996,-4.42e-4 -2.852,0.901457 -3.4408,2.281241 l -14.7844,34.485367 c -0.2024,0.46911 -0.3036,0.96582 -0.3036,1.47173 v 16.88862 c 0,2.06963 1.6748,3.75333 3.7448,3.75333 h 16.532 c 0.736,0 1.4628,-0.23028 2.0792,-0.64428 l 29.5044,-19.68487 c 1.0396,-0.69911 1.6652,-1.86733 1.6652,-3.11834 V 88.061626 c 0,-2.069678 -1.6744,-3.743811 -3.7444,-3.743811 z"
       id="path7"
       style="fill:url(#b-0);stroke-width:0.92" /><path
       fill="#000000"
       d="m 2390.3992,95.357815 h -36.8 v 36.800005 h 36.8 z"
       id="path8-1"
       style="stroke-width:0.92" /><path
       fill="#ffffff"
       d="m 2366.332,111.3638 h -2.7416 v -8.98841 h 2.7416 v -2.401199 h -8.1328 v 2.401199 h 2.7416 v 8.98841 h -2.7416 v 2.4012 h 8.1328 z m 5.4096,-11.398809 v 9.264409 c 0,0.4048 -0.083,0.7544 -0.2576,1.0672 -0.1748,0.3128 -0.414,0.552 -0.7268,0.7268 -0.3128,0.1748 -0.6716,0.2576 -1.0672,0.2576 h -1.978 v 2.484 h 2.3184 c 0.8372,0 1.5824,-0.184 2.254,-0.5612 0.6716,-0.3772 1.196,-0.8924 1.5732,-1.5548 0.3772,-0.6624 0.5704,-1.4076 0.5704,-2.2356 V 99.964991 Z M 2358.1992,127.565 h 14.72 v -2.76 h -14.72 z"
       id="path9"
       style="stroke-width:0.92" /></g></svg>
