<?xml version="1.0" encoding="UTF-8" standalone="no"?>
<!-- Created with Inkscape (http://www.inkscape.org/) -->

<svg
   width="500"
   height="500"
   viewBox="0 0 500 500"
   version="1.1"
   id="svg1"
   xml:space="preserve"
   xmlns:xlink="http://www.w3.org/1999/xlink"
   xmlns="http://www.w3.org/2000/svg"
   xmlns:svg="http://www.w3.org/2000/svg"><defs
     id="defs1"><linearGradient
       id="linearGradient1"><stop
         style="stop-color:#0d4458;stop-opacity:1;"
         offset="0"
         id="stop2" /><stop
         style="stop-color:#115c77;stop-opacity:1;"
         offset="1"
         id="stop1" /></linearGradient><linearGradient
       xlink:href="#linearGradient1"
       id="linearGradient2"
       x1="0"
       y1="250"
       x2="170"
       y2="250"
       gradientUnits="userSpaceOnUse" /><linearGradient
       xlink:href="#linearGradient1"
       id="linearGradient3"
       gradientUnits="userSpaceOnUse"
       x1="0"
       y1="250"
       x2="170"
       y2="250"
       gradientTransform="matrix(1.8823529,0,0,1,-499.99999,0)" /></defs><g
     id="layer1-5"><path
       id="path23"
       style="fill:#000000;stroke-width:12"
       d="m 0,70 v 10 h 15 c 5.54,0 10,4.46 10,10 v 15 c 0,5.54 -4.46,10 -10,10 H 0 v 270 h 15 c 5.54,0 10,4.46 10,10 v 15 c 0,5.54 -4.46,10 -10,10 H 0 v 10 h 150 c 11.08,0 20,-8.92 20,-20 V 90 c 0,-11.08 -8.92,-20 -20,-20 z m 45,10 h 15 c 5.54,0 10,4.46 10,10 v 15 c 0,5.54 -4.46,10 -10,10 H 45 c -5.54,0 -10,-4.46 -10,-10 V 90 c 0,-5.54 4.46,-10 10,-10 z m 45,0 h 15 c 5.54,0 10,4.46 10,10 v 15 c 0,5.54 -4.46,10 -10,10 H 90 c -5.54,0 -10,-4.46 -10,-10 V 90 c 0,-5.54 4.46,-10 10,-10 z m 45,0 h 15 c 5.54,0 10,4.46 10,10 v 15 c 0,5.54 -4.46,10 -10,10 h -15 c -5.54,0 -10,-4.46 -10,-10 V 90 c 0,-5.54 4.46,-10 10,-10 z M 45,385 h 15 c 5.54,0 10,4.46 10,10 v 15 c 0,5.54 -4.46,10 -10,10 H 45 c -5.54,0 -10,-4.46 -10,-10 v -15 c 0,-5.54 4.46,-10 10,-10 z m 45,0 h 15 c 5.54,0 10,4.46 10,10 v 15 c 0,5.54 -4.46,10 -10,10 H 90 c -5.54,0 -10,-4.46 -10,-10 v -15 c 0,-5.54 4.46,-10 10,-10 z m 45,0 h 15 c 5.54,0 10,4.46 10,10 v 15 c 0,5.54 -4.46,10 -10,10 h -15 c -5.54,0 -10,-4.46 -10,-10 v -15 c 0,-5.54 4.46,-10 10,-10 z" /><path
       id="rect3"
       style="fill:#000000;stroke-width:12"
       d="m 200,70 c -11.08,0 -20,8.92 -20,20 v 320 c 0,11.08 8.92,20 20,20 H 500 V 70 Z m 0,10 h 15 c 5.54,0 10,4.46 10,10 v 15 c 0,5.54 -4.46,10 -10,10 h -15 c -5.54,0 -10,-4.46 -10,-10 V 90 c 0,-5.54 4.46,-10 10,-10 z m 45,0 h 15 c 5.54,0 10,4.46 10,10 v 15 c 0,5.54 -4.46,10 -10,10 h -15 c -5.54,0 -10,-4.46 -10,-10 V 90 c 0,-5.54 4.46,-10 10,-10 z m 45,0 h 15 c 5.54,0 10,4.46 10,10 v 15 c 0,5.54 -4.46,10 -10,10 h -15 c -5.54,0 -10,-4.46 -10,-10 V 90 c 0,-5.54 4.46,-10 10,-10 z m 45,0 h 15 c 5.54,0 10,4.46 10,10 v 15 c 0,5.54 -4.46,10 -10,10 h -15 c -5.54,0 -10,-4.46 -10,-10 V 90 c 0,-5.54 4.46,-10 10,-10 z m 45,0 h 15 c 5.54,0 10,4.46 10,10 v 15 c 0,5.54 -4.46,10 -10,10 h -15 c -5.54,0 -10,-4.46 -10,-10 V 90 c 0,-5.54 4.46,-10 10,-10 z m 45,0 h 15 c 5.54,0 10,4.46 10,10 v 15 c 0,5.54 -4.46,10 -10,10 h -15 c -5.54,0 -10,-4.46 -10,-10 V 90 c 0,-5.54 4.46,-10 10,-10 z m 45,0 h 15 c 5.54,0 10,4.46 10,10 v 15 c 0,5.54 -4.46,10 -10,10 h -15 c -5.54,0 -10,-4.46 -10,-10 V 90 c 0,-5.54 4.46,-10 10,-10 z M 200,385 h 15 c 5.54,0 10,4.46 10,10 v 15 c 0,5.54 -4.46,10 -10,10 h -15 c -5.54,0 -10,-4.46 -10,-10 v -15 c 0,-5.54 4.46,-10 10,-10 z m 45,0 h 15 c 5.54,0 10,4.46 10,10 v 15 c 0,5.54 -4.46,10 -10,10 h -15 c -5.54,0 -10,-4.46 -10,-10 v -15 c 0,-5.54 4.46,-10 10,-10 z m 45,0 h 15 c 5.54,0 10,4.46 10,10 v 15 c 0,5.54 -4.46,10 -10,10 h -15 c -5.54,0 -10,-4.46 -10,-10 v -15 c 0,-5.54 4.46,-10 10,-10 z m 45,0 h 15 c 5.54,0 10,4.46 10,10 v 15 c 0,5.54 -4.46,10 -10,10 h -15 c -5.54,0 -10,-4.46 -10,-10 v -15 c 0,-5.54 4.46,-10 10,-10 z m 45,0 h 15 c 5.54,0 10,4.46 10,10 v 15 c 0,5.54 -4.46,10 -10,10 h -15 c -5.54,0 -10,-4.46 -10,-10 v -15 c 0,-5.54 4.46,-10 10,-10 z m 45,0 h 15 c 5.54,0 10,4.46 10,10 v 15 c 0,5.54 -4.46,10 -10,10 h -15 c -5.54,0 -10,-4.46 -10,-10 v -15 c 0,-5.54 4.46,-10 10,-10 z m 45,0 h 15 c 5.54,0 10,4.46 10,10 v 15 c 0,5.54 -4.46,10 -10,10 h -15 c -5.54,0 -10,-4.46 -10,-10 v -15 c 0,-5.54 4.46,-10 10,-10 z" /><rect
       style="opacity:1;fill:url(#linearGradient2);stroke:none;stroke-width:12"
       id="rect1"
       width="170"
       height="250"
       x="0"
       y="125" /><rect
       style="opacity:1;fill:url(#linearGradient3);stroke:none;stroke-width:12"
       id="rect2"
       width="320"
       height="250"
       x="-500"
       y="125"
       transform="scale(-1,1)" /><path
       id="path32"
       style="opacity:1;fill:#ffffff;fill-opacity:1;stroke:none;stroke-width:12"
       d="m 270,280 24.37822,182.22431 39.77398,-41.10945 25.35742,43.92034 c 4.155,7.19667 13.29371,9.64538 20.49038,5.49039 7.19667,-4.155 9.64538,-13.29371 5.49038,-20.49039 l -25.35742,-43.92034 55.48882,-13.89055 z" /></g></svg>
