<?xml version="1.0" encoding="UTF-8" standalone="no"?>
<!-- Created with Inkscape (http://www.inkscape.org/) -->

<svg
   width="50"
   height="50"
   viewBox="0 0 50 50"
   version="1.1"
   id="svg1"
   xml:space="preserve"
   xmlns="http://www.w3.org/2000/svg"
   xmlns:svg="http://www.w3.org/2000/svg"><defs
     id="defs1" /><g
     id="layer1"
     transform="translate(-60,-120)"><g
       id="g34"
       transform="translate(-300,120)"><path
         d="m 385,8.5 c -0.7618,0 -1.51136,0.051795 -2.24609,0.1523438 1.73729,0.6270164 3.26853,1.6783842 4.4707,3.0292972 C 388.9526,13.623434 390,16.184926 390,19 c 0,6.092899 -4.9071,11 -11,11 -2.81507,0 -5.37657,-1.0474 -7.31836,-2.775391 -1.35091,-1.202169 -2.40228,-2.733406 -3.0293,-4.470703 C 368.5518,23.488639 368.5,24.238197 368.5,25 c 0,1.271884 0.14396,2.511015 0.41797,3.701172 C 370.60332,36.021537 377.17695,41.5 385,41.5 c 9.09493,0 16.5,-7.405069 16.5,-16.5 0,-7.823047 -5.47846,-14.39668 -12.79883,-16.0820312 C 387.51102,8.6439617 386.27188,8.5 385,8.5 Z m 6.79492,4.824219 C 395.80936,15.659783 398.5,20.00677 398.5,25 c 0,7.473611 -6.02639,13.5 -13.5,13.5 -4.99323,0 -9.34022,-2.690642 -11.67578,-6.705078 C 375.06035,32.568887 376.98114,33 379,33 c 7.71422,0 14,-6.28578 14,-14 0,-2.018862 -0.43111,-3.939653 -1.20508,-5.675781 z"
         style="baseline-shift:baseline;display:inline;overflow:visible;opacity:1;vector-effect:none;paint-order:stroke fill markers;enable-background:accumulate;stop-color:#000000;stop-opacity:1"
         id="path45" /><path
         style="fill:#000000;stroke-width:2"
         d="m 370,15 c 3,0 5,-2 5,-5 0,3 2,5 5,5 -3,0 -5,2 -5,5 0,-3 -2,-5 -5,-5 z"
         id="path46" /></g></g></svg>
