<?xml version="1.0" encoding="UTF-8" standalone="no"?>
<!-- Created with Inkscape (http://www.inkscape.org/) -->

<svg
   width="50"
   height="50"
   viewBox="0 0 50 50"
   version="1.1"
   id="svg1"
   inkscape:version="1.4 (1:1.4+202410161351+e7c3feb100)"
   sodipodi:docname="Discord.svg"
   xml:space="preserve"
   xmlns:inkscape="http://www.inkscape.org/namespaces/inkscape"
   xmlns:sodipodi="http://sodipodi.sourceforge.net/DTD/sodipodi-0.dtd"
   xmlns:xlink="http://www.w3.org/1999/xlink"
   xmlns="http://www.w3.org/2000/svg"
   xmlns:svg="http://www.w3.org/2000/svg"><sodipodi:namedview
     id="namedview1"
     pagecolor="#505050"
     bordercolor="#eeeeee"
     borderopacity="1"
     inkscape:showpageshadow="0"
     inkscape:pageopacity="0"
     inkscape:pagecheckerboard="0"
     inkscape:deskcolor="#505050"
     inkscape:document-units="px"
     inkscape:zoom="6.0766989"
     inkscape:cx="35.79246"
     inkscape:cy="22.545135"
     inkscape:window-width="1366"
     inkscape:window-height="768"
     inkscape:window-x="0"
     inkscape:window-y="0"
     inkscape:window-maximized="0"
     inkscape:current-layer="layer1" /><defs
     id="defs1"><style
       id="style2">.cls-1{fill:#1877F2;}</style><radialGradient
       id="f"
       cx="158.429"
       cy="578.088"
       r="52.3515"
       xlink:href="#a"
       gradientUnits="userSpaceOnUse"
       gradientTransform="matrix(0,-4.03418,4.28018,0,-2332.2273,942.2356)"
       fx="158.429"
       fy="578.088" /><linearGradient
       id="c"><stop
         offset="0"
         stop-color="#780cff"
         id="stop3" /><stop
         stop-color="#820bff"
         offset="1"
         stop-opacity="0"
         id="stop4" /></linearGradient><linearGradient
       id="a"><stop
         offset="0"
         stop-color="#fc0"
         id="stop7" /><stop
         offset=".1242"
         stop-color="#fc0"
         id="stop8" /><stop
         offset=".5672"
         stop-color="#fe4a05"
         id="stop9" /><stop
         offset=".6942"
         stop-color="#ff0f3f"
         id="stop10" /><stop
         offset="1"
         stop-color="#fe0657"
         stop-opacity="0"
         id="stop11" /></linearGradient><clipPath
       id="clip0"><rect
         width="292"
         height="56.4706"
         fill="white"
         transform="translate(0 11.7646)"
         id="rect10" /></clipPath><clipPath
       id="clip1"><rect
         width="292"
         height="56.4706"
         fill="white"
         transform="translate(0 11.7646)"
         id="rect11" /></clipPath></defs><g
     inkscape:label="Calque 1"
     inkscape:groupmode="layer"
     id="layer1"><path
       d="M 42.354753,8.8890883 C 39.118164,7.3747685 35.657456,6.274224 32.039367,5.647564 c -0.444344,0.8033557 -0.963458,1.8838867 -1.321374,2.7434451 -3.846114,-0.5784079 -7.656862,-0.5784079 -11.43225,0 C 18.927903,7.5314507 18.396987,6.4509197 17.948667,5.647564 14.326685,6.274224 10.861992,7.3788124 7.6254023,8.8971074 1.0971724,18.762118 -0.6725234,28.382099 0.21232622,37.86548 4.5421916,41.098917 8.7383526,43.063132 12.863702,44.34846 c 1.018571,-1.401846 1.926998,-2.892039 2.709579,-4.462562 -1.490467,-0.566345 -2.918009,-1.265245 -4.266877,-2.07662 0.357847,-0.265113 0.707877,-0.542288 1.046059,-0.827482 8.227114,3.848033 17.166083,3.848033 25.29491,0 0.342145,0.285194 0.692109,0.562369 1.046049,0.827482 -1.35284,0.81535 -2.784288,1.514251 -4.274756,2.080664 0.782581,1.566479 1.687109,3.060716 2.70958,4.462494 C 41.257567,43.067108 45.457621,41.102961 49.78749,37.86548 50.825732,26.871823 48.013891,17.34019 42.354753,8.8890883 Z M 16.694114,32.033286 c -2.46969,0 -4.495043,-2.305612 -4.495043,-5.113279 0,-2.807667 1.982104,-5.117255 4.495043,-5.117255 2.513021,0 4.538305,2.305544 4.495056,5.117255 0.0041,2.807667 -1.982035,5.113279 -4.495056,5.113279 z m 16.611595,0 c -2.46969,0 -4.49505,-2.305612 -4.49505,-5.113279 0,-2.807667 1.982043,-5.117255 4.49505,-5.117255 2.512946,0 4.538298,2.305544 4.49505,5.117255 0,2.807667 -1.982104,5.113279 -4.49505,5.113279 z"
       fill="#5865f2"
       id="path1"
       style="stroke-width:0.685399;fill:#ffffff" /></g></svg>
