<?xml version="1.0" encoding="UTF-8" standalone="no"?>
<!-- Created with Inkscape (http://www.inkscape.org/) -->

<svg
   width="50"
   height="50"
   viewBox="0 0 50 50"
   version="1.1"
   id="svg1"
   inkscape:version="1.4 (1:1.4+202410161351+e7c3feb100)"
   sodipodi:docname="Facebook.svg"
   xml:space="preserve"
   xmlns:inkscape="http://www.inkscape.org/namespaces/inkscape"
   xmlns:sodipodi="http://sodipodi.sourceforge.net/DTD/sodipodi-0.dtd"
   xmlns="http://www.w3.org/2000/svg"
   xmlns:svg="http://www.w3.org/2000/svg"><sodipodi:namedview
     id="namedview1"
     pagecolor="#505050"
     bordercolor="#eeeeee"
     borderopacity="1"
     inkscape:showpageshadow="0"
     inkscape:pageopacity="0"
     inkscape:pagecheckerboard="0"
     inkscape:deskcolor="#505050"
     inkscape:document-units="px"
     inkscape:zoom="6.0766989"
     inkscape:cx="26.412367"
     inkscape:cy="28.304842"
     inkscape:window-width="1366"
     inkscape:window-height="768"
     inkscape:window-x="0"
     inkscape:window-y="0"
     inkscape:window-maximized="0"
     inkscape:current-layer="layer1" /><defs
     id="defs1"><style
       id="style2">.cls-1{fill:#1877F2;}</style></defs><g
     inkscape:label="Calque 1"
     inkscape:groupmode="layer"
     id="layer1"><path
       d="m 0,0 c -10.602,0 -19.196,-8.594 -19.196,-19.196 0,-9.473 6.863,-17.337 15.885,-18.906 v 0.066 h 10e-4 v 13.544 h -4.633 v 5.297 h 4.633 v 4.228 c 0,4.811 3.176,7.685 7.562,7.685 2.1,0 4.353,-0.345 4.353,-0.345 v -4.95 H 6.127 c -2.384,0 -2.817,-1.501 -2.817,-3.019 v -3.599 H 8.605 L 7.679,-24.492 H 3.31 v -13.544 -0.066 c 9.023,1.569 15.886,9.433 15.886,18.906 C 19.196,-8.594 10.602,0 0,0"
       style="fill:#ffffff;fill-opacity:1;fill-rule:nonzero;stroke:none"
       id="path540"
       inkscape:connector-curvature="0"
       transform="matrix(1.302348,0,0,-1.302348,24.99987,-4.3011377e-6)" /></g></svg>
