<?xml version="1.0" encoding="UTF-8" standalone="no"?>
<!-- Created with Inkscape (http://www.inkscape.org/) -->

<svg
   width="50"
   height="50"
   viewBox="0 0 50 50"
   version="1.1"
   id="svg1"
   inkscape:version="1.4.3 (0d15f75042, 2025-12-25)"
   sodipodi:docname="icon-set.svg"
   inkscape:export-batch-path="/var/www/html/v3.kgamex.vk/client/public/images"
   inkscape:export-batch-name=""
   xml:space="preserve"
   xmlns:inkscape="http://www.inkscape.org/namespaces/inkscape"
   xmlns:sodipodi="http://sodipodi.sourceforge.net/DTD/sodipodi-0.dtd"
   xmlns="http://www.w3.org/2000/svg"
   xmlns:svg="http://www.w3.org/2000/svg"><sodipodi:namedview
     id="namedview1"
     pagecolor="#505050"
     bordercolor="#eeeeee"
     borderopacity="1"
     inkscape:showpageshadow="0"
     inkscape:pageopacity="0"
     inkscape:pagecheckerboard="0"
     inkscape:deskcolor="#505050"
     inkscape:document-units="px"
     showgrid="true"
     inkscape:zoom="11.313708"
     inkscape:cx="12.109204"
     inkscape:cy="148.80178"
     inkscape:window-width="1862"
     inkscape:window-height="1011"
     inkscape:window-x="0"
     inkscape:window-y="0"
     inkscape:window-maximized="1"
     inkscape:current-layer="g25"><inkscape:grid
       id="grid2"
       units="px"
       originx="0"
       originy="0"
       spacingx="1"
       spacingy="1"
       empcolor="#0099e5"
       empopacity="0.30196078"
       color="#0099e5"
       opacity="0.14901961"
       empspacing="10"
       enabled="true"
       visible="true" /><inkscape:page
       x="0"
       y="0"
       width="50"
       height="50"
       id="page1"
       margin="0"
       bleed="0"
       inkscape:label="dropdown" /><inkscape:page
       x="60"
       y="0"
       width="50"
       height="50"
       id="page38"
       margin="0"
       bleed="0"
       inkscape:label="activities" /><inkscape:page
       x="120"
       y="0"
       width="50"
       height="50"
       id="page36"
       margin="0"
       bleed="0"
       inkscape:label="videos" /><inkscape:page
       x="180"
       y="0"
       width="50"
       height="50"
       id="page14"
       margin="0"
       bleed="0"
       inkscape:label="mini-games" /><inkscape:page
       x="240"
       y="0"
       width="50"
       height="50"
       id="page2"
       margin="0"
       bleed="0"
       inkscape:label="tools" /><inkscape:page
       x="0"
       y="60"
       width="50"
       height="50"
       id="page3"
       inkscape:label="blog"
       margin="0"
       bleed="0" /><inkscape:page
       x="60"
       y="60"
       width="50"
       height="50"
       id="page18"
       inkscape:label="language"
       margin="0"
       bleed="0" /><inkscape:page
       x="120"
       y="60"
       width="50"
       height="50"
       id="page4"
       inkscape:label="manage"
       margin="0"
       bleed="0" /><inkscape:page
       x="180"
       y="60"
       width="50"
       height="50"
       id="page5"
       inkscape:label="account" /><inkscape:page
       x="240"
       y="60"
       width="50"
       height="50"
       id="page6"
       inkscape:label="log-in" /><inkscape:page
       x="0"
       y="120"
       width="50"
       height="50"
       id="page7"
       margin="0"
       bleed="0"
       inkscape:label="questions" /></sodipodi:namedview><defs
     id="defs1"><inkscape:path-effect
       effect="fillet_chamfer"
       id="path-effect24"
       is_visible="true"
       lpeversion="1"
       nodesatellites_param="F,0,0,1,0,0,0,1 @ F,0,0,1,0,2,0,1 @ F,0,0,1,0,2,0,1 @ F,0,0,1,0,2,0,1 @ F,0,0,1,0,2,0,1 @ F,0,0,1,0,2,0,1 @ F,0,0,1,0,2,0,1 @ F,0,0,1,0,2,0,1 @ F,0,0,1,0,0,0,1"
       radius="0"
       unit="px"
       method="auto"
       mode="F"
       chamfer_steps="1"
       flexible="false"
       use_knot_distance="true"
       apply_no_radius="true"
       apply_with_radius="true"
       only_selected="false"
       hide_knots="false" /><inkscape:path-effect
       effect="fillet_chamfer"
       id="path-effect23"
       is_visible="true"
       lpeversion="1"
       nodesatellites_param="F,0,1,1,0,0,0,1 @ F,0,0,1,0,2,0,1 @ F,0,1,1,0,2,0,1 @ F,0,1,1,0,2,0,1 @ F,0,1,1,0,2,0,1 @ F,0,1,1,0,2,0,1 @ F,0,1,1,0,2,0,1 @ F,0,0,1,0,0,0,1"
       radius="0"
       unit="px"
       method="auto"
       mode="F"
       chamfer_steps="1"
       flexible="false"
       use_knot_distance="true"
       apply_no_radius="true"
       apply_with_radius="true"
       only_selected="false"
       hide_knots="false" /><inkscape:perspective
       sodipodi:type="inkscape:persp3d"
       inkscape:vp_x="-22.821773 : 13.176157 : 0"
       inkscape:vp_y="0 : 1000 : 0"
       inkscape:vp_z="22.821773 : 13.176157 : 0"
       inkscape:persp3d-origin="29.978264 : 36.0745 : 1"
       id="perspective14" /></defs><g
     inkscape:label="Calque 1"
     inkscape:groupmode="layer"
     id="layer1"><g
       id="g31"
       inkscape:label="dropdown"
       transform="matrix(1,0,0,1.0434783,0,-1.0869565)"
       style="stroke-width:0.978945"><path
         style="fill:none;stroke:#000000;stroke-width:2.93684;stroke-linecap:butt;stroke-linejoin:round;stroke-dasharray:none;paint-order:stroke fill markers"
         d="M 13,15 H 37"
         id="path2" /><path
         style="fill:none;stroke:#000000;stroke-width:2.93684;stroke-linecap:butt;stroke-linejoin:round;stroke-dasharray:none;paint-order:stroke fill markers"
         d="M 13,35 H 37"
         id="path3" /><path
         style="fill:none;stroke:#000000;stroke-width:2.93684;stroke-linecap:butt;stroke-linejoin:round;stroke-dasharray:none;paint-order:stroke fill markers"
         d="M 13,25 H 37"
         id="path4" /></g><g
       id="g44"
       transform="translate(-180)"
       inkscape:label="activities"
       style="stroke-width:3;stroke-dasharray:none"><path
         style="fill:#000000;stroke:#000000;stroke-width:3;stroke-linecap:butt;stroke-linejoin:miter;stroke-dasharray:none;paint-order:stroke fill markers"
         d="m 252,36 2,2 4,-4 -2,-2 z"
         id="path39"
         sodipodi:nodetypes="ccccc" /><path
         style="fill:none;stroke:#000000;stroke-width:3;stroke-linecap:butt;stroke-linejoin:miter;stroke-dasharray:none;paint-order:stroke fill markers"
         d="m 253,27 10,10"
         id="path40"
         sodipodi:nodetypes="cc" /><path
         id="path41"
         style="fill:none;stroke:#000000;stroke-width:3;stroke-linecap:butt;stroke-linejoin:miter;stroke-dasharray:none;paint-order:stroke fill markers"
         d="m 278,12 -9,2 -4,4.923828 5.39062,6.634766 L 276,21 Z M 259.60938,25.558594 256,30 l 4,4 5,-4.0625 z" /><path
         style="fill:#000000;stroke:#000000;stroke-width:3;stroke-linecap:butt;stroke-linejoin:miter;stroke-dasharray:none;paint-order:stroke fill markers"
         d="m 278,36 -2,2 -4,-4 2,-2 z"
         id="path42"
         sodipodi:nodetypes="ccccc" /><path
         style="fill:none;stroke:#000000;stroke-width:3;stroke-linecap:butt;stroke-linejoin:miter;stroke-dasharray:none;paint-order:stroke fill markers"
         d="M 277,27 267,37"
         id="path43"
         sodipodi:nodetypes="cc" /><path
         style="fill:none;stroke:#000000;stroke-width:3;stroke-linecap:butt;stroke-linejoin:miter;stroke-dasharray:none;paint-order:stroke fill markers"
         d="m 270,34 -16,-13 -2,-9 9,2 13,16"
         id="path44"
         sodipodi:nodetypes="ccccc" /></g><g
       id="g37"
       inkscape:label="videos"
       transform="translate(-60)"
       style="stroke-width:3;stroke-dasharray:none"><path
         style="fill:none;stroke:#000000;stroke-width:3;stroke-linecap:butt;stroke-linejoin:miter;stroke-dasharray:none;paint-order:stroke fill markers"
         d="M 191,35 V 15 h 28 v 20 z"
         id="path37" /><path
         style="fill:#000000;stroke:none;stroke-width:3;stroke-linecap:butt;stroke-linejoin:miter;stroke-dasharray:none;paint-order:stroke fill markers"
         d="m 201.5,29 v -8 l 8,4 z"
         id="path38"
         sodipodi:nodetypes="cccc" /></g><g
       id="g33"
       inkscape:label="mini-games"
       transform="translate(60)"
       style="stroke-width:3;stroke-dasharray:none"><path
         sodipodi:type="star"
         style="fill:none;stroke:#000000;stroke-width:3;stroke-linecap:butt;stroke-linejoin:miter;stroke-dasharray:none;paint-order:stroke fill markers"
         id="path25"
         inkscape:flatsided="true"
         sodipodi:sides="6"
         sodipodi:cx="145"
         sodipodi:cy="25"
         sodipodi:r1="15"
         sodipodi:r2="12.990381"
         sodipodi:arg1="-1.5707963"
         sodipodi:arg2="-1.0471976"
         inkscape:rounded="0"
         inkscape:randomized="0"
         d="m 145,10 12.99038,7.5 0,15 L 145,40 l -12.99038,-7.5 0,-15 z" /><path
         style="fill:none;stroke:#000000;stroke-width:3;stroke-linecap:butt;stroke-linejoin:miter;stroke-dasharray:none;paint-order:stroke fill markers"
         d="M 132.00962,17.5 145,25 157.99038,17.5"
         id="path26" /><path
         style="fill:none;stroke:#000000;stroke-width:3;stroke-linecap:butt;stroke-linejoin:miter;stroke-dasharray:none;paint-order:stroke fill markers"
         d="M 145,25 V 40"
         id="path27" /><path
         style="fill:#000000;stroke:none;stroke-width:3;stroke-linecap:butt;stroke-linejoin:miter;stroke-dasharray:none;paint-order:stroke fill markers"
         d="M 143.26795,14.999999 145,16 146.73205,14.999999 145,14 Z"
         id="path28" /><path
         style="fill:#000000;stroke:none;stroke-width:3;stroke-linecap:butt;stroke-linejoin:miter;stroke-dasharray:none;paint-order:stroke fill markers"
         d="M 143.26795,19.999999 145,21 146.73205,19.999999 145,19 Z"
         id="path29" /><path
         style="fill:#000000;stroke:none;stroke-width:3;stroke-linecap:butt;stroke-linejoin:miter;stroke-dasharray:none;paint-order:stroke fill markers"
         d="m 137.63879,27.25 -1e-5,2 1.73206,0.999999 V 28.25 Z"
         id="path30" /><path
         style="fill:#000000;stroke:none;stroke-width:3;stroke-linecap:butt;stroke-linejoin:miter;stroke-dasharray:none;paint-order:stroke fill markers"
         d="m 154.52627,28.500004 -1.73205,0.999999 1e-5,1.999991 1.73205,-0.999991 z"
         id="path34" /><path
         style="fill:#000000;stroke:none;stroke-width:3;stroke-linecap:butt;stroke-linejoin:miter;stroke-dasharray:none;paint-order:stroke fill markers"
         d="m 150.19614,26.000005 -1.73205,0.999998 1e-5,1.999991 1.73205,-0.999991 z"
         id="path35" /><path
         style="fill:#000000;stroke:none;stroke-width:3;stroke-linecap:butt;stroke-linejoin:miter;stroke-dasharray:none;paint-order:stroke fill markers"
         d="m 152.36121,27.250005 -1.73205,0.999998 v 1.999991 l 1.73205,-0.999991 z"
         id="path36" /></g><g
       id="g32"
       inkscape:label="Tools"
       transform="translate(180)"
       style="stroke-width:3;stroke-dasharray:none"><path
         style="fill:none;stroke:#000000;stroke-width:3;stroke-linecap:square;stroke-linejoin:miter;paint-order:stroke fill markers;stroke-dasharray:none"
         d="m 72,18 6,-6 20,20 -6,6 z"
         id="path6"
         sodipodi:nodetypes="ccccc" /><path
         style="fill:none;stroke:#000000;stroke-width:2;stroke-linecap:butt;stroke-linejoin:miter;stroke-dasharray:none;paint-order:stroke fill markers"
         d="m 79.707107,18.292893 2,-2"
         id="path7" /><path
         style="fill:none;stroke:#000000;stroke-width:2;stroke-linecap:butt;stroke-linejoin:miter;stroke-dasharray:none;paint-order:stroke fill markers"
         d="m 82.707107,21.292893 2,-2"
         id="path8" /><path
         style="fill:none;stroke:#000000;stroke-width:2;stroke-linecap:butt;stroke-linejoin:miter;stroke-dasharray:none;paint-order:stroke fill markers"
         d="m 85.707107,24.292893 2,-2"
         id="path9" /><path
         style="fill:none;stroke:#000000;stroke-width:2;stroke-linecap:butt;stroke-linejoin:miter;stroke-dasharray:none;paint-order:stroke fill markers"
         d="m 88.707107,27.292893 2,-2"
         id="path10" /><path
         style="fill:none;stroke:#000000;stroke-width:2;stroke-linecap:butt;stroke-linejoin:miter;stroke-dasharray:none;paint-order:stroke fill markers"
         d="m 91.707107,30.292893 2,-2"
         id="path11" /><path
         style="fill:none;stroke:#000000;stroke-width:3;stroke-linecap:butt;stroke-linejoin:miter;stroke-dasharray:none;paint-order:stroke fill markers"
         d="m 72,35 3,3 9,-8 -4,-4 z"
         id="path12"
         sodipodi:nodetypes="ccccc" /><path
         style="fill:none;stroke:#000000;stroke-width:3;stroke-linecap:butt;stroke-linejoin:miter;stroke-dasharray:none;paint-order:stroke fill markers"
         d="M 88,22 98,12"
         id="path13"
         sodipodi:nodetypes="cc" /><path
         style="fill:#000000;stroke:none;stroke-width:1;stroke-linecap:butt;stroke-linejoin:miter;stroke-dasharray:none;paint-order:stroke fill markers"
         d="M 98,10 94,12 91.828125,16 94,18 l 4,-2 2,-4 z"
         id="path14"
         sodipodi:nodetypes="ccccccc" /></g><g
       id="g18"
       inkscape:label="blog"
       transform="translate(-300,60)"><path
         style="fill:none;stroke:#000000;stroke-width:3;stroke-dasharray:none;paint-order:stroke fill markers"
         d="m 519,40 -9,-5 H 491 V 13 h 28 z"
         id="path5"
         sodipodi:nodetypes="cccccc"
         transform="translate(-180)" /><path
         style="fill:none;stroke:#000000;stroke-width:2;stroke-dasharray:none;paint-order:stroke fill markers"
         d="m 315,18 h 20"
         id="path1" /><path
         style="fill:none;stroke:#000000;stroke-width:2;stroke-dasharray:none;paint-order:stroke fill markers"
         d="m 315,22 h 20"
         id="path15" /><path
         style="fill:none;stroke:#000000;stroke-width:2;stroke-dasharray:none;paint-order:stroke fill markers"
         d="m 315,26 h 20"
         id="path16" /><path
         style="fill:none;stroke:#000000;stroke-width:2;stroke-dasharray:none;paint-order:stroke fill markers"
         d="m 315,30 h 9"
         id="path17"
         sodipodi:nodetypes="cc" /></g><g
       id="g24"
       inkscape:label="language"
       transform="translate(-300,60)"><circle
         style="fill:none;stroke:#000000;stroke-width:3;stroke-dasharray:none;paint-order:stroke fill markers"
         id="path18"
         cx="385"
         cy="25"
         r="15" /><path
         style="fill:none;stroke:#000000;stroke-width:3;stroke-dasharray:none;paint-order:stroke fill markers"
         d="m 375,14 h 11 a 2,2 45 0 1 2,2 2,2 135 0 1 -2,2 h -2 a 2,2 135 0 0 -2,2 2,2 135 0 1 -2,2 h -1 a 2,2 135 0 0 -2,2 2,2 135 0 1 -2,2 h -5"
         id="path22"
         sodipodi:nodetypes="cccccccc"
         inkscape:path-effect="#path-effect23"
         inkscape:original-d="m 375,14 h 13 v 4 h -6 v 4 h -5 v 4 h -7" /><path
         style="fill:none;stroke:#000000;stroke-width:3;stroke-dasharray:none;paint-order:stroke fill markers"
         d="M 390,39.40625 V 36 a 2,2 45 0 0 -2,-2 h -4 a 2,2 45 0 1 -2,-2 2,2 135 0 1 2,-2 h 1 a 2,2 135 0 0 2,-2 2,2 135 0 1 2,-2 h 3 a 2,2 135 0 0 2,-2 2,2 135 0 1 2,-2 h 3"
         id="path23"
         sodipodi:nodetypes="ccccccccc"
         inkscape:path-effect="#path-effect24"
         inkscape:original-d="M 390,39.40625 V 34 h -8 v -4 h 5 v -4 h 7 v -4 h 5" /></g><g
       id="g20"
       inkscape:label="manage"
       transform="translate(-300,60)"><path
         id="path19"
         style="fill:none;stroke:#000000;stroke-width:3;stroke-linecap:round;paint-order:stroke fill markers"
         d="m 446.12109,9.0390625 -2.0957,4.5019535 a 11.5,11.5 0 0 0 -3.5332,0.878906 l -3.96094,-2.996094 a 16,16 0 0 0 -2.02539,1.498047 l 1.70312,4.666016 a 11.5,11.5 0 0 0 -1.87695,3.11914 l -4.91992,0.681641 a 16,16 0 0 0 -0.37305,2.490234 l 4.50196,2.095703 a 11.5,11.5 0 0 0 0.8789,3.533203 l -2.99609,3.960938 a 16,16 0 0 0 1.49805,2.025391 l 4.66601,-1.703125 a 11.5,11.5 0 0 0 3.11914,1.876953 l 0.68164,4.919922 a 16,16 0 0 0 2.49024,0.373047 l 2.0957,-4.501954 a 11.5,11.5 0 0 0 3.5332,-0.878906 l 3.96094,2.996094 a 16,16 0 0 0 2.02539,-1.498047 l -1.70312,-4.666016 a 11.5,11.5 0 0 0 1.87695,-3.11914 l 4.91992,-0.681641 a 16,16 0 0 0 0.37305,-2.490234 l -4.50196,-2.095703 a 11.5,11.5 0 0 0 -0.8789,-3.533203 l 2.99609,-3.960938 a 16,16 0 0 0 -1.49805,-2.025391 l -4.66601,1.703125 a 11.5,11.5 0 0 0 -3.11914,-1.876953 l -0.68164,-4.9199216 a 16,16 0 0 0 -2.49024,-0.3730469 z" /><circle
         style="fill:none;stroke:#000000;stroke-width:3;stroke-linecap:round;stroke-linejoin:miter;paint-order:stroke fill markers"
         id="path20"
         cx="445"
         cy="25"
         r="5" /></g><g
       id="g20-7"
       transform="matrix(-1,0,0,1,230,60)"
       inkscape:label="account"><path
         style="fill:none;stroke:#000000;stroke-width:3;stroke-linecap:butt;stroke-dasharray:none"
         id="path19-0"
         transform="scale(-1,1)"
         sodipodi:type="arc"
         sodipodi:cx="-25"
         sodipodi:cy="40"
         sodipodi:rx="12.5"
         sodipodi:ry="12.5"
         sodipodi:start="3.1415927"
         sodipodi:end="0"
         sodipodi:arc-type="arc"
         d="M -37.5,40 A 12.5,12.5 0 0 1 -25,27.5 12.5,12.5 0 0 1 -12.5,40"
         sodipodi:open="true" /><circle
         style="fill:none;stroke:#000000;stroke-width:3;stroke-linecap:butt;stroke-dasharray:none"
         id="path20-9"
         transform="scale(-1,1)"
         cx="-25"
         cy="17"
         r="5.5" /></g><g
       id="g6"
       transform="translate(176,60)"
       inkscape:label="log-in"><path
         style="fill:none;stroke:#000000;stroke-width:3;stroke-linecap:square;stroke-dasharray:none"
         d="m 81.5,11.5 h 17 v 27 h -17"
         id="path13-3" /><path
         style="fill:none;stroke:#000000;stroke-width:3;stroke-linecap:square;stroke-dasharray:none"
         d="m 73.5,25 h 13"
         id="path14-5" /><path
         style="fill:none;stroke:#000000;stroke-width:3;stroke-linecap:square;stroke-dasharray:none"
         d="m 82.87868,20 5,5 -5,5"
         id="path15-6" /></g><g
       id="g25"
       inkscape:label="questions"
       transform="rotate(90,53,-8)"
       style="stroke-width:3;stroke-dasharray:none"><path
         style="fill:none;stroke:#000000;stroke-width:3;stroke-linecap:butt;stroke-linejoin:miter;stroke-dasharray:none;paint-order:stroke fill markers"
         d="M 192,34 V 17 h 23 v 17 z"
         id="path21"
         sodipodi:nodetypes="ccccc" /><path
         style="fill:none;stroke:#000000;stroke-width:3;stroke-linecap:butt;stroke-linejoin:miter;stroke-dasharray:none;paint-order:stroke fill markers"
         d="M 197,17 V 6 h 23 v 17 h -5"
         id="path31"
         sodipodi:nodetypes="ccccc" /><path
         d="m -26.625535,205.47179 h 1.72638 l 0.186179,-1.03244 c 1.844857,-0.35543 3.334284,-1.25247 3.334284,-3.40199 v -0.0339 c 0,-2.25106 -1.65868,-3.50353 -4.095923,-3.50353 -1.844858,0 -3.148106,0.74471 -4.146699,1.82793 l 1.557128,1.70945 c 0.795489,-0.79548 1.590978,-1.16784 2.538795,-1.16784 0.998593,0 1.557128,0.44006 1.557128,1.2017 v 0.0339 c 0,0.89704 -0.812415,1.45557 -2.961928,1.5402 l -0.08463,0.0846 z m -0.558535,4.02823 h 2.741898 v -2.70805 h -2.741898 z"
         id="text31"
         style="font-weight:bold;font-size:16.9253px;line-height:1;font-family:Gotham;-inkscape-font-specification:'Gotham Bold';text-align:center;letter-spacing:0px;word-spacing:0px;text-anchor:middle;stroke-width:3.17348;stroke-linecap:round;stroke-linejoin:round"
         transform="rotate(-90)"
         aria-label="?" /></g></g></svg>
