<?xml version="1.0" encoding="UTF-8" standalone="no"?>
<!-- Created with Inkscape (http://www.inkscape.org/) -->

<svg
   width="50"
   height="50"
   viewBox="0 0 50 50"
   version="1.1"
   id="svg1"
   inkscape:version="1.4 (1:1.4+202410161351+e7c3feb100)"
   sodipodi:docname="Instagram.svg"
   xml:space="preserve"
   xmlns:inkscape="http://www.inkscape.org/namespaces/inkscape"
   xmlns:sodipodi="http://sodipodi.sourceforge.net/DTD/sodipodi-0.dtd"
   xmlns:xlink="http://www.w3.org/1999/xlink"
   xmlns="http://www.w3.org/2000/svg"
   xmlns:svg="http://www.w3.org/2000/svg"><sodipodi:namedview
     id="namedview1"
     pagecolor="#505050"
     bordercolor="#eeeeee"
     borderopacity="1"
     inkscape:showpageshadow="0"
     inkscape:pageopacity="0"
     inkscape:pagecheckerboard="0"
     inkscape:deskcolor="#505050"
     inkscape:document-units="px"
     inkscape:zoom="4.296875"
     inkscape:cx="11.985455"
     inkscape:cy="21.410909"
     inkscape:window-width="1366"
     inkscape:window-height="768"
     inkscape:window-x="0"
     inkscape:window-y="0"
     inkscape:window-maximized="0"
     inkscape:current-layer="layer1" /><defs
     id="defs1"><style
       id="style2">.cls-1{fill:#1877F2;}</style><radialGradient
       id="f"
       cx="158.429"
       cy="578.088"
       r="52.3515"
       xlink:href="#a"
       gradientUnits="userSpaceOnUse"
       gradientTransform="matrix(0,-4.03418,4.28018,0,-2332.2273,942.2356)"
       fx="158.429"
       fy="578.088" /><linearGradient
       id="c"><stop
         offset="0"
         stop-color="#780cff"
         id="stop3" /><stop
         stop-color="#820bff"
         offset="1"
         stop-opacity="0"
         id="stop4" /></linearGradient><linearGradient
       id="a"><stop
         offset="0"
         stop-color="#fc0"
         id="stop7" /><stop
         offset=".1242"
         stop-color="#fc0"
         id="stop8" /><stop
         offset=".5672"
         stop-color="#fe4a05"
         id="stop9" /><stop
         offset=".6942"
         stop-color="#ff0f3f"
         id="stop10" /><stop
         offset="1"
         stop-color="#fe0657"
         stop-opacity="0"
         id="stop11" /></linearGradient></defs><g
     inkscape:label="Calque 1"
     inkscape:groupmode="layer"
     id="layer1"><path
       id="path11"
       style="fill:#ffffff"
       d="M 204.14848 18.1429 C 148.91798 18.1429 132.77087 18.202794 129.63107 18.463294 C 118.29687 19.405694 111.23894 21.189365 103.55514 25.015865 C 97.63374 27.957165 92.960935 31.367768 88.351935 36.146968 C 79.958135 44.862668 74.876642 55.585148 73.035042 68.331048 C 72.139742 74.518748 71.878713 75.781893 71.825813 107.38809 C 71.805513 117.92349 71.825813 131.78518 71.825813 150.38288 C 71.825813 205.58368 71.881607 221.72435 72.146207 224.85895 C 73.061907 235.89095 74.798267 242.83625 78.461067 250.42845 C 85.461067 264.96135 98.822555 275.86479 114.57256 279.93569 C 120.02606 281.34009 126.05335 282.11187 133.78585 282.47817 C 137.06205 282.62067 170.45682 282.72622 203.86942 282.72622 C 237.28212 282.72622 270.69629 282.68231 273.89099 282.51951 C 282.84449 282.09811 288.03791 281.40092 293.78641 279.91502 C 309.63811 275.82382 322.76593 265.08227 329.90823 250.34577 C 333.49983 242.93677 335.31621 235.72836 336.14041 225.27236 C 336.31941 222.99276 336.39879 186.64958 336.39879 150.35188 C 336.39879 114.04788 336.31951 77.762766 336.14041 75.483066 C 335.30611 64.858166 333.48138 57.713115 329.77388 50.161615 C 326.73178 43.980015 323.3504 39.368351 318.4464 34.648351 C 309.6944 26.286751 298.99625 21.192128 286.24165 19.352128 C 280.06165 18.458528 278.82728 18.1978 247.20528 18.1429 L 204.14848 18.1429 z M 204.12781 52.114984 L 204.14848 52.114984 L 204.15881 52.114984 C 230.84053 52.115122 234.20667 52.237512 244.6938 52.714431 C 255.1665 53.193631 262.31758 54.841392 268.58898 57.272292 C 275.06518 59.780992 280.53184 63.142101 286.00394 68.610101 C 291.47594 74.074001 294.84162 79.559657 297.36242 86.025057 C 299.78072 92.275357 301.43872 99.424232 301.93062 109.88923 C 302.40192 120.37473 302.51973 123.71689 302.51973 150.41389 C 302.51973 177.11079 302.40192 180.45314 301.93062 190.93854 C 301.43872 201.39944 299.78072 208.55032 297.36242 214.80272 C 294.84162 221.26602 291.47594 226.74344 286.00394 232.20734 C 280.53804 237.67534 275.05708 241.04488 268.58898 243.55548 C 262.32998 245.98648 255.17694 247.64448 244.70414 248.12368 C 234.21094 248.60088 230.86728 248.71279 204.14848 248.71279 C 177.43378 248.71279 174.08612 248.60068 163.59282 248.12368 C 153.12222 247.64438 145.96697 245.98638 139.70797 243.55548 C 133.24197 241.04478 127.75901 237.67534 122.29301 232.20734 C 116.82301 226.74344 113.45957 221.26812 110.94487 214.80272 C 108.51427 208.55242 106.85837 201.40354 106.37667 190.93854 C 105.90127 180.45314 105.77723 177.11089 105.77723 150.41389 C 105.77723 123.71699 105.89704 120.3643 106.36634 109.8789 C 106.83764 99.417997 108.50597 92.277457 110.94487 86.025057 C 113.46567 79.561757 116.82101 74.074101 122.29301 68.610101 C 127.76091 63.144201 133.24821 59.782992 139.71831 57.272292 C 145.97331 54.841292 153.12012 53.193631 163.59282 52.714431 C 174.07995 52.237512 177.45426 52.115122 204.12781 52.114984 z M 195.33248 69.808994 C 176.99798 69.829594 173.4843 69.947164 164.4093 70.356764 C 154.8179 70.797164 149.61455 72.395038 146.14685 73.746738 C 141.55605 75.532538 138.27272 77.664861 134.82972 81.105461 C 131.38662 84.545961 129.25399 87.824864 127.47099 92.412264 C 126.12449 95.877364 124.51962 101.07998 124.08102 110.66438 C 123.60962 121.02688 123.51258 124.12215 123.51258 150.37255 C 123.51258 176.62305 123.60962 179.72845 124.08102 190.09105 C 124.51752 199.67535 126.12449 204.88216 127.47099 208.34316 C 129.25819 212.93266 131.38662 216.19913 134.82972 219.63963 C 138.27272 223.08013 141.55605 225.21666 146.14685 226.99836 C 149.61665 228.34386 154.8179 229.93569 164.4093 230.37799 C 174.7796 230.84899 177.89091 230.95677 204.15881 230.95677 C 230.42471 230.95677 233.53812 230.84899 243.90832 230.37799 C 253.49982 229.93969 258.71751 228.35006 262.18111 226.99836 C 266.77391 225.21666 270.03457 223.08023 273.47757 219.63963 C 276.92067 216.20123 279.06363 212.9409 280.84663 208.3535 C 282.19313 204.8925 283.78767 199.68569 284.22627 190.10139 C 284.69767 179.73889 284.80505 176.62722 284.80505 150.39322 C 284.80505 124.15912 284.69767 121.04755 284.22627 110.68505 C 283.78977 101.10065 282.19313 95.893934 280.84663 92.432934 C 279.05943 87.845634 276.92067 84.577067 273.47757 81.136467 C 270.03657 77.695967 266.77191 75.559443 262.18111 73.777743 C 258.71341 72.432243 253.49982 70.836405 243.90832 70.398105 C 233.53602 69.927105 230.42471 69.829664 204.15881 69.829664 C 200.87561 69.829664 197.95178 69.825564 195.33248 69.829664 L 195.33248 69.808994 z M 256.6724 86.149081 C 263.1897 86.149081 268.4753 91.429242 268.4753 97.941642 C 268.4753 104.45414 263.1896 109.74454 256.6724 109.74454 C 250.1551 109.74454 244.8695 104.45414 244.8695 97.941642 C 244.8695 91.427242 250.1551 86.149081 256.6724 86.149081 z M 204.15881 99.936352 C 232.05811 99.936352 254.66735 122.53529 254.66735 150.41389 C 254.66735 178.29249 232.05811 200.89142 204.15881 200.89142 C 176.25951 200.89142 153.63994 178.29249 153.63994 150.41389 C 153.63994 122.53529 176.25951 99.936352 204.15881 99.936352 z M 204.15881 117.65103 C 186.04781 117.65103 171.36495 132.31629 171.36495 150.41389 C 171.36495 168.50949 186.04781 183.18708 204.15881 183.18708 C 222.26781 183.18708 236.95267 168.50949 236.95267 150.41389 C 236.95267 132.31629 222.26781 117.65103 204.15881 117.65103 z "
       transform="matrix(0.18897639,0,0,0.18897639,-13.57143,-3.4285797)" /></g></svg>
