<?xml version="1.0" encoding="UTF-8" standalone="no"?>
<!-- Created with Inkscape (http://www.inkscape.org/) -->

<svg
   width="50"
   height="50"
   viewBox="0 0 50 50"
   version="1.1"
   id="svg1"
   xml:space="preserve"
   xmlns="http://www.w3.org/2000/svg"
   xmlns:svg="http://www.w3.org/2000/svg"><defs
     id="defs1" /><g
     id="layer1"
     transform="translate(0,-120)"><g
       id="g25"
       transform="rotate(90,53,-8)"
       style="stroke-width:3;stroke-dasharray:none"><path
         style="fill:none;stroke:#000000;stroke-width:3;stroke-linecap:butt;stroke-linejoin:miter;stroke-dasharray:none;paint-order:stroke fill markers"
         d="M 192,34 V 17 h 23 v 17 z"
         id="path21" /><path
         style="fill:none;stroke:#000000;stroke-width:3;stroke-linecap:butt;stroke-linejoin:miter;stroke-dasharray:none;paint-order:stroke fill markers"
         d="M 197,17 V 6 h 23 v 17 h -5"
         id="path31" /><path
         d="m -26.625535,205.47179 h 1.72638 l 0.186179,-1.03244 c 1.844857,-0.35543 3.334284,-1.25247 3.334284,-3.40199 v -0.0339 c 0,-2.25106 -1.65868,-3.50353 -4.095923,-3.50353 -1.844858,0 -3.148106,0.74471 -4.146699,1.82793 l 1.557128,1.70945 c 0.795489,-0.79548 1.590978,-1.16784 2.538795,-1.16784 0.998593,0 1.557128,0.44006 1.557128,1.2017 v 0.0339 c 0,0.89704 -0.812415,1.45557 -2.961928,1.5402 l -0.08463,0.0846 z m -0.558535,4.02823 h 2.741898 v -2.70805 h -2.741898 z"
         id="text31"
         style="font-weight:bold;font-size:16.9253px;line-height:1;font-family:Gotham;-inkscape-font-specification:'Gotham Bold';text-align:center;letter-spacing:0px;word-spacing:0px;text-anchor:middle;stroke-width:3.17348;stroke-linecap:round;stroke-linejoin:round"
         transform="rotate(-90)"
         aria-label="?" /></g></g></svg>
